<?xml version="1.0" encoding="UTF-8" standalone="no"?>
<svg
   height="20.166691"
   viewBox="0 -960 1301.9887 806.66763"
   width="32.549717"
   fill="#e8eaed"
   version="1.1"
   id="svg4"
   sodipodi:docname="green-red-arrow-choice.svg"
   inkscape:version="1.1.2 (0a00cf5339, 2022-02-04)"
   xmlns:inkscape="http://www.inkscape.org/namespaces/inkscape"
   xmlns:sodipodi="http://sodipodi.sourceforge.net/DTD/sodipodi-0.dtd"
   xmlns="http://www.w3.org/2000/svg"
   xmlns:svg="http://www.w3.org/2000/svg">
  <defs
     id="defs8" />
  <sodipodi:namedview
     id="namedview6"
     pagecolor="#ffffff"
     bordercolor="#666666"
     borderopacity="1.0"
     inkscape:pageshadow="2"
     inkscape:pageopacity="0.0"
     inkscape:pagecheckerboard="0"
     showgrid="false"
     inkscape:zoom="18.125"
     inkscape:cx="-0.33103448"
     inkscape:cy="6.2344828"
     inkscape:window-width="1920"
     inkscape:window-height="1056"
     inkscape:window-x="0"
     inkscape:window-y="0"
     inkscape:window-maximized="1"
     inkscape:current-layer="svg4" />
  <path
     style="fill:#008000;fill-opacity:1;stroke:#008000;stroke-width:4.19552;stroke-miterlimit:10;stroke-opacity:1"
     d="m 634.09775,-160.82999 c -3.1862,-2.02396 -146.68964,-91.72857 -318.89652,-199.34359 C 142.99432,-467.78861 2.09776,-556.21025 2.09776,-556.66617 c 0,-0.456 140.89656,-88.87756 313.10347,-196.4926 172.20688,-107.615 315.71032,-197.31964 318.89652,-199.3436 l 5.79312,-3.67988 v 399.51608 399.51609 z"
     id="path1539" />
  <path
     style="fill:#be0b0b;fill-opacity:1;stroke:#be0b0b;stroke-width:4.19552;stroke-miterlimit:10;stroke-opacity:1"
     d="m 667.89087,-952.50235 c 3.1862,2.024 146.6897,91.72859 318.8966,199.34361 172.20683,107.61503 313.10343,196.03667 313.10343,196.49259 0,0.456 -140.8966,88.87756 -313.10343,196.4926 -172.2069,107.615 -315.7104,197.31964 -318.8966,199.3436 l -5.7931,3.67988 v -399.51608 -399.5161 z"
     id="path1539-3" />
</svg>
