<?xml version="1.0" encoding="UTF-8" standalone="no"?>
<svg
   height="20.166691"
   viewBox="0 -960 1301.9887 806.66763"
   width="32.549717"
   fill="#e8eaed"
   version="1.1"
   id="svg4"
   sodipodi:docname="green-red-arrow-progress.svg"
   inkscape:version="1.1.2 (0a00cf5339, 2022-02-04)"
   xmlns:inkscape="http://www.inkscape.org/namespaces/inkscape"
   xmlns:sodipodi="http://sodipodi.sourceforge.net/DTD/sodipodi-0.dtd"
   xmlns="http://www.w3.org/2000/svg"
   xmlns:svg="http://www.w3.org/2000/svg">
  <defs
     id="defs8" />
  <sodipodi:namedview
     id="namedview6"
     pagecolor="#ffffff"
     bordercolor="#666666"
     borderopacity="1.0"
     inkscape:pageshadow="2"
     inkscape:pageopacity="0.0"
     inkscape:pagecheckerboard="0"
     showgrid="false"
     inkscape:zoom="6.4081552"
     inkscape:cx="-24.265954"
     inkscape:cy="-3.121023"
     inkscape:window-width="954"
     inkscape:window-height="1053"
     inkscape:window-x="0"
     inkscape:window-y="0"
     inkscape:window-maximized="0"
     inkscape:current-layer="svg4" />
  <path
     style="fill:#008000;fill-opacity:1;stroke:#008000;stroke-width:4.19552;stroke-miterlimit:10;stroke-opacity:1"
     d="m 5.1581405,-243.56273 c 2.02396,-3.1862 91.7285705,-146.68964 199.3435895,-318.89652 107.61503,-172.20691 196.03667,-313.10347 196.49259,-313.10347 0.456,0 88.87756,140.89656 196.4926,313.10347 107.615,172.20688 197.31964,315.71032 199.3436,318.89652 l 3.67988,5.79312 H 400.99432 1.4782305 Z"
     id="path1539" />
  <path
     style="fill:#be0b0b;fill-opacity:1;stroke:#be0b0b;stroke-width:4.19552;stroke-miterlimit:10;stroke-opacity:1"
     d="m 1296.8305,-869.76963 c -2.024,3.1862 -91.7286,146.6897 -199.3436,318.8966 -107.615,172.20683 -196.03665,313.10343 -196.49257,313.10343 -0.456,0 -88.87756,-140.8966 -196.4926,-313.10343 -107.615,-172.2069 -197.31964,-315.7104 -199.3436,-318.8966 l -3.67988,-5.7931 h 399.51608 399.51607 z"
     id="path1539-3" />
  <path
     style="opacity:0.203557;fill:#000b0b;fill-opacity:1;stroke:none;stroke-width:0;stroke-linecap:butt;stroke-linejoin:miter;stroke-miterlimit:4;stroke-dasharray:none;stroke-opacity:1"
     d="m 899.8443,-233.48385 192.4805,-640.96468 204.5057,4.6789 z"
     id="path854-3"
     sodipodi:nodetypes="cccc" />
  <path
     style="opacity:0.203557;fill:#000b0b;fill-opacity:1;stroke:none;stroke-width:0;stroke-linecap:butt;stroke-linejoin:miter;stroke-miterlimit:4;stroke-dasharray:none;stroke-opacity:1"
     d="M 800.5104,-237.76961 120.65331,-421.72902 1.4782305,-237.76961 Z"
     id="path1607"
     sodipodi:nodetypes="cccc" />
</svg>
