<?xml version="1.0" encoding="UTF-8" standalone="no"?>
<svg
   height="20.166691"
   viewBox="0 -960 1301.9887 806.66763"
   width="32.549717"
   fill="#e8eaed"
   version="1.1"
   id="svg4"
   sodipodi:docname="green-red-choice.svg"
   inkscape:version="1.1.2 (0a00cf5339, 2022-02-04)"
   xmlns:inkscape="http://www.inkscape.org/namespaces/inkscape"
   xmlns:sodipodi="http://sodipodi.sourceforge.net/DTD/sodipodi-0.dtd"
   xmlns="http://www.w3.org/2000/svg"
   xmlns:svg="http://www.w3.org/2000/svg">
  <defs
     id="defs8" />
  <sodipodi:namedview
     id="namedview6"
     pagecolor="#ffffff"
     bordercolor="#666666"
     borderopacity="1.0"
     inkscape:pageshadow="2"
     inkscape:pageopacity="0.0"
     inkscape:pagecheckerboard="0"
     showgrid="false"
     inkscape:zoom="18.125"
     inkscape:cx="-1.1034483"
     inkscape:cy="9.0482759"
     inkscape:window-width="1920"
     inkscape:window-height="1056"
     inkscape:window-x="0"
     inkscape:window-y="0"
     inkscape:window-maximized="1"
     inkscape:current-layer="svg4" />
  <path
     style="fill:#008000;fill-opacity:1;stroke:#008000;stroke-width:4.19552;stroke-miterlimit:10;stroke-opacity:1"
     d="m -507.33127,-205.1794 c -3.1862,-2.02396 -146.68964,-91.72857 -318.89652,-199.34359 -172.20691,-107.61503 -313.10351,-196.03667 -313.10351,-196.49259 0,-0.456 140.8966,-88.87756 313.10351,-196.4926 172.20688,-107.615 315.71032,-197.31964 318.89652,-199.3436 l 5.79312,-3.67992 v 399.51612 399.51609 z"
     id="path1539" />
  <path
     style="fill:#be0b0b;fill-opacity:1;stroke:#be0b0b;stroke-width:4.19552;stroke-miterlimit:10;stroke-opacity:1"
     d="m -1100.2993,-597.14702 c 2.024,-3.1862 91.7286,-146.68972 199.34357,-318.89663 107.61503,-172.20685 196.03667,-313.10345 196.49259,-313.10345 0.456,0 88.87756,140.8966 196.4926,313.10345 107.615,172.20691 197.31968,315.71043 199.34358,318.89663 l 3.6799,5.7931 h -399.51608 -399.51606 z"
     id="path1539-3" />
  <rect
     style="fill:#be0b0b;fill-opacity:1;stroke:#be0b0b;stroke-width:136.792;stroke-miterlimit:10;stroke-opacity:1"
     id="rect1273"
     width="504.66226"
     height="504.66226"
     x="399.8656"
     y="-779.2547" />
</svg>
