<?xml version="1.0" encoding="UTF-8" standalone="no"?>
<svg
   viewBox="0 0 256 256"
   version="1.1"
   id="svg8"
   sodipodi:docname="instagram.svg"
   inkscape:version="1.1.2 (0a00cf5339, 2022-02-04)"
   xmlns:inkscape="http://www.inkscape.org/namespaces/inkscape"
   xmlns:sodipodi="http://sodipodi.sourceforge.net/DTD/sodipodi-0.dtd"
   xmlns="http://www.w3.org/2000/svg"
   xmlns:svg="http://www.w3.org/2000/svg">
  <defs
     id="defs12" />
  <sodipodi:namedview
     id="namedview10"
     pagecolor="#ffffff"
     bordercolor="#666666"
     borderopacity="1.0"
     inkscape:pageshadow="2"
     inkscape:pageopacity="0.0"
     inkscape:pagecheckerboard="0"
     showgrid="false"
     inkscape:zoom="3.3984375"
     inkscape:cx="128"
     inkscape:cy="128"
     inkscape:window-width="1920"
     inkscape:window-height="1056"
     inkscape:window-x="0"
     inkscape:window-y="0"
     inkscape:window-maximized="1"
     inkscape:current-layer="svg8" />
  <rect
     fill="none"
     height="256"
     width="256"
     id="rect2" />
  <circle
     cx="128"
     cy="128"
     r="32"
     id="circle4"
     style="fill:#f0f8ff;fill-opacity:1" />
  <path
     d="M172,28H84A56,56,0,0,0,28,84v88a56,56,0,0,0,56,56h88a56,56,0,0,0,56-56V84A56,56,0,0,0,172,28ZM128,176a48,48,0,1,1,48-48A48,48,0,0,1,128,176Zm52-88a12,12,0,1,1,12-12A12,12,0,0,1,180,88Z"
     id="path6"
     style="fill:#f0f8ff;fill-opacity:1" />
</svg>
