<?xml version="1.0" encoding="UTF-8" standalone="no"?>
<!-- Created with Inkscape (http://www.inkscape.org/) -->

<svg
   width="198.55576mm"
   height="159.81711mm"
   viewBox="0 0 198.55576 159.81711"
   version="1.1"
   id="svg5"
   inkscape:version="1.1.2 (0a00cf5339, 2022-02-04)"
   sodipodi:docname="stamp-void.svg"
   xmlns:inkscape="http://www.inkscape.org/namespaces/inkscape"
   xmlns:sodipodi="http://sodipodi.sourceforge.net/DTD/sodipodi-0.dtd"
   xmlns="http://www.w3.org/2000/svg"
   xmlns:svg="http://www.w3.org/2000/svg">
  <sodipodi:namedview
     id="namedview7"
     pagecolor="#ffffff"
     bordercolor="#999999"
     borderopacity="1"
     inkscape:pageshadow="0"
     inkscape:pageopacity="0"
     inkscape:pagecheckerboard="0"
     inkscape:document-units="mm"
     showgrid="false"
     inkscape:zoom="0.5737093"
     inkscape:cx="400.8999"
     inkscape:cy="139.44344"
     inkscape:window-width="1384"
     inkscape:window-height="826"
     inkscape:window-x="616"
     inkscape:window-y="87"
     inkscape:window-maximized="0"
     inkscape:current-layer="layer1" />
  <defs
     id="defs2">
    <rect
       x="78.536888"
       y="298.6893"
       width="589.98999"
       height="77.690956"
       id="rect24520" />
    <rect
       x="81.430717"
       y="300.14023"
       width="435.15268"
       height="144.96149"
       id="rect10144" />
    <rect
       x="78.536888"
       y="298.6893"
       width="589.98999"
       height="77.690956"
       id="rect24953" />
  </defs>
  <g
     inkscape:label="Layer 1"
     inkscape:groupmode="layer"
     id="layer1"
     transform="translate(-7.8167326,-114.75455)"
     style="opacity:0.75">
    <path
       id="path37119"
       style="fill:#be0b0b;fill-opacity:1;stroke:none;stroke-width:4.99999;stroke-linecap:round;stroke-miterlimit:50;stroke-opacity:1"
       d="m 7.6743255,199.62966 1.2040737,3.99592 0.4034452,1.3389 c 0.039688,0.0708 0.078796,0.14183 0.1185588,0.21254 -0.01265,-0.003 -0.046379,-0.0117 -0.058917,-0.0146 l 1.6513548,5.48028 c 0.649447,0.27985 1.293651,0.54792 2.174239,0.91973 0.742259,0.25362 1.793732,0.74782 2.660576,0.66203 l -2.953829,-9.80278 9.085818,-2.73779 c 0.242998,-0.57031 0.395626,-1.19298 0.553435,-1.8674 0.07751,0.0848 0.152767,0.16533 0.185934,0.1836 1.084545,0.59725 1.586221,0.3822 1.964968,-1.07514 0.02314,0.0673 0.08239,0.14723 0.150404,0.23047 -0.0066,0.01 -0.01172,0.0171 -0.0183,0.0271 -0.03662,0.0564 0.11051,0.33841 0.27641,0.62536 -0.04437,0.025 -0.09968,0.0471 -0.190332,0.0579 0.01148,0.31348 0.01697,0.62372 0.01603,0.93266 l 4.585711,-1.3818 c 0.07461,-0.19846 0.147564,-0.42541 0.21551,-0.65322 0.0099,0.22142 0.01926,0.4176 0.03733,0.57704 l 2.335406,-0.70372 c 0.05765,-0.29392 0.116583,-0.58737 0.174891,-0.88116 0.03343,-0.14297 0.06668,-0.28604 0.100106,-0.42901 0.330043,-0.0902 0.657316,-0.18066 1.062343,-0.29315 0.04401,-0.0121 0.08743,-0.0262 0.131435,-0.0385 0.03652,0.0349 0.07546,0.0688 0.111243,0.10413 0.279877,0.27568 0.548124,0.59063 0.881077,0.79612 l 2.790119,-0.84074 c -0.0053,-0.0183 -0.01274,-0.0377 -0.01801,-0.0561 0.04037,-0.0487 0.08299,-0.0957 0.122574,-0.14488 0.02206,0.0498 0.04366,0.0998 0.06561,0.1497 l 2.551136,-0.76872 c -0.06555,-0.35516 -0.121548,-0.7118 -0.179488,-1.06853 0.390615,-0.1072 0.781259,-0.21328 1.173789,-0.31375 0.113993,0.3407 0.252624,0.68534 0.453454,0.94603 l 2.79952,-0.84357 c 0.09641,-0.17834 0.189284,-0.35549 0.305372,-0.55024 0.205813,-0.45766 0.178531,-0.39786 0.259898,-0.57754 0.810829,-0.2181 2.17037,-0.58453 2.813139,-0.75539 0.08486,0.0169 0.173156,0.0279 0.267612,0.0284 0.123695,0.25126 0.202802,0.40672 0.325649,0.65801 l 3.29035,-0.99147 c 0.142661,-0.2051 0.153147,-0.51403 0.224964,-0.7705 0.61498,-0.16063 0.95432,-0.25085 1.804389,-0.47247 0.01209,0.2069 0.02499,0.41364 0.03589,0.62065 l 3.579308,-1.07854 c 0.07295,-0.12864 0.141636,-0.25924 0.191613,-0.39936 0.01111,-0.0311 0.01691,-0.0898 0.02408,-0.14219 0.412395,-0.10719 0.824731,-0.2148 1.237135,-0.32205 0.09833,0.11219 0.199937,0.22151 0.308621,0.33284 l 4.189384,-1.26237 c 0.04183,-0.0924 0.08317,-0.185 0.120778,-0.27981 2.502871,-0.65866 5.003589,-1.32515 7.497495,-2.01578 l 13.654706,-4.11451 c 0.05265,-0.0175 0.105454,-0.0346 0.158136,-0.052 1.92e-4,0.001 2.19e-4,0.003 1.55e-4,0.004 l 3.886076,-1.17098 c 0.04223,-0.0197 0.09023,-0.0406 0.13337,-0.0607 0.172896,-0.0543 0.343575,-0.11284 0.512381,-0.1749 0.0043,0.0125 0.0088,0.0246 0.01335,0.037 l 3.140924,-0.94645 c 0.0038,-0.23494 0.0041,-0.4417 0.0061,-0.64788 0.04601,-0.0216 0.09331,-0.0405 0.13946,-0.062 0.302561,0.1488 0.600832,0.25278 0.893595,0.30934 3.48e-4,0.0282 0.004,0.0573 0.0054,0.0858 l 3.274025,-0.98655 c 0.983243,-0.64487 1.885468,-1.45721 2.703166,-2.04994 0.376442,-0.10638 0.751119,-0.31685 1.059299,-0.51997 0.083,-0.0547 0.0841,-0.14011 0.0569,-0.23572 0.23336,-0.15349 0.41241,-0.27041 0.616,-0.4042 0.15705,0.49295 0.30979,0.98746 0.47494,1.47765 0.0258,0.0763 0.0518,0.15277 0.0772,0.22932 l 2.85692,-0.86086 c 0.01,-0.40744 0.003,-0.81551 -0.003,-1.22376 0.17245,0.32065 0.33911,0.64481 0.50793,0.9674 0.0157,0.0301 0.0314,0.0599 0.0471,0.09 l 2.65058,-0.79868 c -0.27703,-1.08608 -0.56687,-2.16893 -0.85575,-3.25191 0.005,0.008 0.004,0.007 0.009,0.0151 0.4607,0.69221 0.89219,1.40394 1.35001,2.09802 0.14413,0.21852 0.3377,0.52537 0.56759,0.81611 l 2.70204,-0.81419 c 0.0156,-0.25325 0.0232,-0.50648 0.0258,-0.75962 0.03,0.0799 0.061,0.15933 0.091,0.23921 0.0634,0.14699 0.11225,0.28754 0.16619,0.43512 l 2.24388,-0.67614 c -0.0121,-0.0412 -0.0304,-0.0843 -0.0361,-0.1235 -0.0498,-0.33985 -0.0563,-0.38933 -0.0819,-0.56362 0.0801,0.23361 0.16153,0.46536 0.26544,0.64269 l 1.84062,-0.55462 c -0.007,-0.14683 -0.051,-0.31151 -0.10988,-0.48286 0.0124,-0.0179 0.0206,-0.0266 0.0329,-0.045 0.25782,-0.38766 -0.20391,-0.90838 -0.30943,-1.36183 -0.0453,-0.19476 -0.0925,-0.3833 -0.13791,-0.57588 0.46529,-0.052 0.94873,-0.27253 1.41571,-0.34024 -0.0293,-0.10447 -0.0661,-0.20677 -0.0965,-0.31096 0.20212,-0.20397 -0.087,-0.56501 -0.13844,-0.84989 0.1639,0.35971 0.32719,0.71952 0.47932,1.08558 0.0464,0.14007 -0.005,0.44265 0.14049,0.41967 0.63163,-0.0997 1.32859,-0.23587 1.82379,-0.63376 0.022,-0.004 0.0462,-0.006 0.0682,-0.0103 0.0522,-0.011 0.0615,-0.0468 0.0526,-0.0925 0.005,-0.006 0.0125,-0.01 0.0181,-0.0152 0.27519,-0.27335 -0.0226,-0.77508 -0.0352,-1.16274 -0.0102,-0.31287 -0.0211,-0.62572 -0.0324,-0.93852 l -9.87947,2.97694 c 0.0118,0.0841 0.0184,0.16865 0.0298,0.25279 -0.15766,0.24729 -0.29349,0.51296 -0.4211,0.78588 -0.019,-0.0293 -0.0397,-0.0573 -0.059,-0.0864 0.0427,-0.30313 0.0892,-0.63875 0.11484,-0.85119 l -8.58509,2.58691 c 0.031,0.0966 0.0624,0.19312 0.0933,0.28979 -0.12113,0.0795 -0.27411,0.18014 -0.406343,0.26709 -0.01352,-0.11237 -0.04406,-0.3728 -0.05256,-0.4467 l -2.54866,0.76798 c 0.151087,0.34547 0.302205,0.69079 0.454108,1.03597 -0.389745,0.20992 -0.866212,0.4661 -1.359568,0.74861 0.0042,-0.0184 0.0041,-0.0398 0.0091,-0.0578 0.02598,-0.48934 0.03245,-0.97911 0.04044,-1.46887 l -10.100632,3.04358 c 0.06589,0.13592 0.130354,0.27268 0.192744,0.41039 -0.122474,0.0502 -0.222547,0.0943 -0.314293,0.13194 -0.01527,-0.16932 -0.02868,-0.31707 -0.04322,-0.49269 l -2.062284,0.62142 c 0.02079,0.11412 0.02891,0.15814 0.05222,0.28435 0.02839,0.17335 0.06237,0.38046 0.0931,0.56509 -0.08634,0.0497 -0.159353,0.0912 -0.262844,0.15045 -0.08496,-0.073 -0.169978,-0.14584 -0.255225,-0.21832 0.005,-0.22456 0.0113,-0.44914 0.01502,-0.67377 l -49.998458,15.06586 c 0.05647,0.10327 0.10835,0.2127 0.161848,0.3204 0.05202,0.2217 0.10681,0.44287 0.158704,0.6646 -0.0248,0.007 -0.04955,0.0146 -0.07437,0.0219 -0.264315,-0.23423 -0.537286,-0.45582 -0.836988,-0.64264 0.01844,-0.0671 0.03754,-0.13564 0.05795,-0.20364 l -6.039399,1.81983 c -0.01743,0.10819 -0.02741,0.19529 -0.04714,0.31104 -0.338925,0.005 -0.680001,0.007 -0.975592,-0.003 l -7.100724,2.13963 c 0.01544,0.12872 0.03137,0.26736 0.04761,0.40339 -0.07251,-0.11751 -0.145393,-0.23471 -0.218314,-0.35196 l -7.30161,2.20017 z M 119.25084,166.00876 c 0.15708,0.30382 0.13104,0.24628 1.09982,2.15073 0.11489,0.20554 0.41452,0.95805 0.81972,1.62959 l 2.47493,-0.74576 c -0.0242,-0.44164 -0.11197,-0.88345 -0.15743,-1.25866 -0.0536,-0.4428 -0.10214,-0.88653 -0.15293,-1.32966 -0.0196,-0.21388 -0.0715,-0.76931 -0.11699,-1.32321 0.62927,0.95738 1.1935,1.95563 1.72734,2.96877 0.0833,0.15805 0.1647,0.31731 0.24376,0.47759 l 7.11804,-2.14485 c 0.0367,-0.27981 -0.31167,-0.60024 -0.42042,-0.89553 -0.0922,-0.25034 -0.18404,-0.50082 -0.27602,-0.75123 0.2834,0.13155 0.56701,0.26283 0.81168,0.4279 0.15428,-0.0186 0.30406,-0.0513 0.45488,-0.0809 0.19562,0.21724 0.42016,0.23165 0.81828,-0.20393 0.82678,-0.25745 1.61973,-0.62136 2.42361,-0.94835 0.0883,0.001 0.17544,0.005 0.26521,-0.001 -0.35428,0.48334 -0.69208,1.08336 -0.92144,1.50227 l 10.92445,-3.29182 c -0.008,-0.0202 -0.0159,-0.0402 -0.0236,-0.0604 6.8e-4,-4.9e-4 9.6e-4,-8e-4 0.001,-0.002 0.004,2.3e-4 0.008,-1.1e-4 0.0118,-3.1e-4 0.0176,0.001 0.029,0.0255 0.0373,0.0541 l 18.32106,-5.52061 c -0.55344,0.0833 -1.34119,0.38075 -3.48668,0.88979 -0.5393,0.12795 -1.07457,0.27302 -1.61192,0.40907 -0.0159,-0.35088 -0.0568,-0.69046 -0.0862,-0.97197 -0.0624,-0.59854 -0.15326,-1.19437 -0.25353,-1.78886 0.11838,0.1883 0.24173,0.37194 0.40809,0.51605 0.92366,0.8001 1.50882,0.59928 2.34732,-0.51193 0.22855,-0.30288 0.15292,-0.74477 0.18792,-1.12258 0.005,-0.0523 0.003,-0.28635 0.004,-0.44014 0.29198,0.68931 0.57606,1.38224 0.86668,2.07204 0.10606,0.2518 0.0586,0.69611 0.32602,0.75235 2.45677,0.51703 1.93462,-0.29384 1.89544,-1.78767 -0.0173,-0.2739 -0.044,-0.547 -0.0654,-0.82063 0.18073,-0.1206 0.35949,-0.24345 0.50607,-0.40184 0.12297,-0.13286 0.27832,-0.42295 0.42098,-0.71999 0.20422,0.31058 0.40949,0.62046 0.61311,0.93138 0.18377,0.28061 0.84117,1.29745 1.29805,1.97929 l 4.08152,-1.22987 c -0.0474,-0.60624 -0.10745,-1.27094 -0.10778,-1.27471 -0.0273,-0.28828 -0.008,-0.07 -0.0239,-0.24053 0.074,-0.0245 0.1423,-0.0529 0.20452,-0.0843 0.35783,0.491 0.70781,0.96365 0.96226,1.28763 l 2.86532,-0.8634 c 0.0235,-0.398 0.027,-0.7849 0.0353,-1.06308 0.0328,-1.36624 -1.82793,-1.45273 -1.98417,-0.18147 -0.17538,-0.23797 -0.26852,-0.36359 -0.42618,-0.57969 0.34343,-0.2049 0.98207,-0.7154 1.00911,-1.17193 0.27441,0.24637 0.70239,0.61543 1.56875,1.33372 0.43739,0.36264 0.84307,0.83629 1.36018,1.05169 -0.0191,0.0507 -0.0265,0.0995 -0.0212,0.14621 l 3.51449,-1.05901 2.05465,6.81869 c 0.72552,-0.39325 1.44563,-0.78586 2.1813,-1.20618 0.0464,0.14651 0.093,0.29261 0.13913,0.40982 -0.26924,0.50287 -0.54895,1.00025 -0.82829,1.49795 -0.24585,-0.0233 -0.5932,0.0428 -1.13022,0.075 -0.015,0.0109 -0.0838,0.0624 -0.1046,0.0774 l 0.98059,3.25423 c 0.0179,-0.002 0.0425,-0.007 0.0609,-0.009 -0.008,0.0436 -0.0184,0.0871 -0.0246,0.13081 l 0.74814,2.48286 c 0.0789,0.0583 0.1644,0.11785 0.26101,0.17664 -0.0896,0.0175 -0.10344,0.0192 -0.19645,0.0376 l 1.07048,3.55258 c 0.56454,-0.18121 1.0989,-0.51681 1.64028,-0.81646 0.0859,0.033 0.17507,0.0539 0.27017,0.0584 -0.58052,0.46658 -1.14827,0.94933 -1.70217,1.44931 l 2.08239,6.91073 c 0.1639,0.0895 0.33122,0.17352 0.50408,0.25073 -0.005,0.0136 -0.0263,0.0638 -0.0306,0.0756 -0.0708,0.19319 -0.13396,0.3889 -0.19906,0.58407 l 1.53253,5.08594 c 1.35274,-0.32307 2.78892,-0.89809 3.95283,-1.34706 l -0.57923,-1.92226 c -0.81452,0.30532 -1.62813,0.61777 -2.45272,0.89828 0.0892,-0.13602 0.17638,-0.27256 0.25703,-0.41153 0.25404,-0.43773 0.47924,-0.83519 0.63013,-1.23315 0.0338,-0.0326 0.0688,-0.0641 0.10257,-0.0967 0.28725,-0.27852 0.76391,-0.47632 0.96922,-0.79561 l -0.64214,-2.13106 c -0.0426,-0.0463 -0.0794,-0.10084 -0.12416,-0.14339 -0.21613,-0.20514 -0.52545,0.28147 -0.78817,0.42208 -0.0278,0.0189 -0.0555,0.038 -0.0832,0.057 -0.002,-0.001 -0.004,-0.003 -0.007,-0.005 0.028,-0.0742 0.0611,-0.14642 0.0883,-0.22093 0.17483,-0.47967 0.3991,-0.95266 0.51068,-1.44866 l -0.68955,-2.2884 c -0.20808,-0.12761 -0.45719,-0.22804 -0.7593,-0.29526 0.16201,-0.19915 0.32745,-0.39555 0.49168,-0.59289 l -1.72947,-5.73955 c -0.24487,0.10028 -0.48982,0.20028 -0.73463,0.3007 -0.036,-0.62468 -0.14422,-1.12152 -0.80993,-1.5559 -0.37227,-0.24292 -0.86341,-0.21122 -1.29522,-0.31676 -0.20743,-0.0395 -0.44209,-0.008 -0.62271,-0.11785 -0.0638,-0.0386 0.0555,-0.13855 0.09,-0.20467 0.0687,-0.13144 0.17599,-0.24552 0.21954,-0.38728 0.0493,-0.16045 0.37461,-1.68548 0.22723,-1.88245 -0.1363,-0.18217 -0.31371,-0.32224 -0.50185,-0.4511 0.44199,-0.80464 0.88229,-1.61041 1.30629,-2.42458 l -1.17604,-3.90289 c -0.18597,-0.0144 -0.37143,-0.0128 -0.55667,0.0171 -0.53437,0.0864 -0.9137,0.58165 -1.37879,0.85858 -0.12195,0.0726 -0.24205,0.14982 -0.36249,0.22634 0.045,-0.12875 0.0814,-0.24294 0.18464,-0.48688 0.0536,-0.12124 0.10695,-0.24256 0.1608,-0.36366 0.58217,-0.15434 1.07057,-0.28365 1.87791,-0.49894 l -0.048,-0.15932 c -0.20912,-0.15286 -0.37438,-0.28179 -0.5007,-0.38993 0.11502,-0.042 0.2327,-0.0756 0.34937,-0.11229 l -0.64752,-2.14887 c -0.49894,0.0908 -0.91228,0.17002 -1.15188,0.2127 -0.39775,0.0709 -0.80468,0.11287 -1.2117,0.15571 -0.0351,-0.22406 -0.13595,-0.42982 -0.35229,-0.58522 0.0578,-0.14489 0.1204,-0.28664 0.18029,-0.42994 0.63394,-0.47713 1.27155,-0.94934 1.91451,-1.41453 l -0.82583,-2.74064 -0.80304,0.24198 -5.14185,1.54938 c 0.0159,0.0421 0.0306,0.0867 0.0424,0.1173 -0.0292,-0.0346 -0.0583,-0.0692 -0.0874,-0.10376 l -10.01008,3.0163 c 0.63514,0.37411 1.33675,0.96594 2.08798,1.33918 0.009,0.0928 -0.01,-0.13808 0.0636,0.63551 0.001,0.0121 0.002,0.0242 0.003,0.0364 -0.31569,-0.0773 -0.62878,-0.12514 -0.92965,-0.0313 -0.0559,0.0174 -0.0989,0.0503 -0.13903,0.0867 -0.43316,-0.66717 -0.86428,-1.33595 -1.3,-2.00192 l -15.87093,4.78233 c 0.0411,0.21564 0.0858,0.44789 0.12468,0.6592 -0.0267,-0.0533 -0.0507,-0.10798 -0.0777,-0.16117 -0.0738,-0.14526 -0.13846,-0.29879 -0.20483,-0.45047 l -10.8532,3.27036 c 0.007,0.15738 0.0211,0.31353 0.0229,0.47182 4e-5,0.0129 -0.004,0.027 -0.004,0.0403 -0.0621,-0.0978 -0.16984,-0.2662 -0.27361,-0.43514 l -12.3163,3.71122 c 0.1373,0.42617 0.27437,0.85257 0.41124,1.2788 0.11797,0.36729 0.2428,0.73645 0.36228,1.10735 0.0592,0.39801 0.10505,0.79779 0.13791,1.19925 -0.4588,-0.74459 -0.87799,-1.5153 -1.39297,-2.2227 -0.26879,-0.37865 -0.47338,-0.72086 -0.68023,-1.01263 l -5.87316,1.76973 c 0.005,0.0367 0.008,0.0734 0.0127,0.11007 -0.0166,-0.0325 -0.0337,-0.0663 -0.0502,-0.0987 z m 15.36727,-4.555 c 0.14943,0.2967 0.24851,0.49396 0.41703,0.83232 -0.19721,0.0832 -0.39481,0.16397 -0.59555,0.2356 -0.0666,0.0237 -0.13422,0.0443 -0.20093,0.0676 -0.0257,-0.15613 -0.0583,-0.41187 -0.0893,-0.624 0.15738,-0.17094 0.30423,-0.33148 0.46871,-0.51148 z m 19.67315,-5.87137 c 0.43032,1.05169 0.83868,2.11273 1.2498,3.1715 0.0221,0.0569 0.0789,0.20487 0.10745,0.27958 -0.41921,0.11954 -0.84026,0.23238 -1.25854,0.35493 -0.003,-0.0311 -0.006,-0.0622 -0.009,-0.0933 0.0822,-0.0466 0.16698,-0.0888 0.24206,-0.14419 0.11452,-0.0248 0.23,-0.0484 0.33931,-0.0812 0.0921,-0.0276 0.0593,-0.11987 -0.003,-0.22732 0.23942,-0.28688 -0.14598,-0.73724 -0.22374,-1.10431 -0.15262,-0.72061 -0.30294,-1.43702 -0.44394,-2.1557 z m 19.82967,-5.93039 c 0.27861,0.21076 0.1984,0.14943 0.36236,0.27293 -0.0223,-10e-4 -0.0425,-0.006 -0.066,-0.006 -0.036,-0.0194 -0.0472,-0.0173 -0.039,-9.5e-4 -0.10383,0.002 -0.21169,0.006 -0.28792,-0.0439 -0.0626,-0.0408 0.0205,-0.1483 0.0306,-0.22244 z M 17.072796,196.99626 c 0.146598,0.23558 0.209073,0.34082 0.375379,0.60633 -0.06943,-0.0132 -0.135108,-0.0266 -0.211592,-0.0377 -0.06324,-0.17799 -0.118829,-0.3629 -0.17623,-0.54543 0.0044,-0.008 0.0081,-0.0153 0.01243,-0.0232 z m 52.594985,-15.72518 c -0.0026,0.0474 -0.0051,0.0866 -0.0091,0.13984 -0.02221,-0.0362 -0.04669,-0.0721 -0.06943,-0.10857 0.02637,-0.0108 0.05137,-0.0195 0.07857,-0.0312 z m 2.963907,-0.89089 c 0.08209,-0.007 0.159579,-0.024 0.240326,-0.0336 -0.06225,0.11425 -0.119812,0.23096 -0.184602,0.34383 -0.01655,0.0289 -0.159263,0.24067 -0.228311,0.34027 0.06458,-0.22805 0.122262,-0.44449 0.1726,-0.65055 z m 3.316276,-0.87676 c -0.08189,0.23327 -0.180624,0.49004 -0.309914,0.80203 -0.164527,-0.30747 -0.141928,-0.27192 -0.24459,-0.46602 0.02485,-0.0476 0.07126,-0.13509 0.09412,-0.1784 0.151756,-0.0529 0.304967,-0.10411 0.460375,-0.15762 z m -29.536715,9.01568 c 0.02083,-0.0127 0.0293,-0.007 0.01669,0.0268 -0.06863,0.1851 -0.193316,0.28016 -0.3303,0.36184 0.0091,-0.0173 0.01487,-0.0362 0.02443,-0.0532 0.0529,-0.0949 0.226664,-0.29742 0.289151,-0.33541 z m 21.279868,-6.40516 c 0.113844,0.17214 0.244815,0.33607 0.353634,0.51087 0.180772,0.29033 0.358442,0.58238 0.537462,0.87376 -0.397843,0.10858 -0.796955,0.21251 -1.195064,0.32017 0.152137,-0.66978 0.259419,-1.40809 0.303972,-1.7048 z M 174.7004,150.08839 c 0.47425,0.35593 0.35849,0.266 0.007,0.0205 -0.002,-0.007 -0.005,-0.0136 -0.007,-0.0205 z m -13.75543,4.19399 c 0.0867,-0.0135 0.17265,-0.0194 0.25578,-0.004 0.17445,0.0328 0.24594,1.45194 -0.25578,0.004 z M 45.975482,189.17394 c 0.01219,0.0209 0.02486,0.0442 0.037,0.0655 -0.02317,0.007 -0.04974,0.009 -0.07383,0.0147 0.01124,-0.0273 0.02517,-0.0532 0.03683,-0.0802 z m 63.176378,-18.57577 c 0.0812,-0.003 0.16155,-0.0117 0.24246,-0.0175 0.0139,0.15734 0.0226,0.3151 0.0324,0.47276 -0.0908,-0.15241 -0.18372,-0.3032 -0.27481,-0.45529 z m -57.004434,17.17968 c 0.0116,0.0158 0.02482,0.0291 0.03663,0.0446 -0.01797,0.005 -0.02677,0.007 -0.04449,0.0117 0.0028,-0.0186 0.0052,-0.0376 0.0078,-0.0563 z m 89.359284,-26.92517 c 0.17959,-0.003 0.32776,0.0582 0.34083,0.36092 -0.1603,-0.17144 -0.24338,-0.25816 -0.34083,-0.36092 z m 0.43404,3.5e-4 c 0.0179,0.0604 0.0302,0.12274 0.0525,0.18169 0.0262,0.0699 -0.0278,-0.0578 -0.0525,-0.18169 z m 0.90378,-0.0796 c 0.31436,0.13555 0.63366,0.24864 0.96806,0.295 0.13844,0.34541 0.28245,0.68884 0.41437,1.03661 0.0523,0.13778 0.0967,0.27828 0.14381,0.41813 -2.95063,0.87262 -3.97769,0.96178 -4.66825,1.35323 -8.6e-4,-0.009 -0.009,-0.0772 -0.01,-0.0824 -0.018,-0.13357 -0.064,-0.50682 -0.10683,-0.8238 0.59801,0.10023 0.47355,-0.24929 0.31707,-0.69948 -0.005,-0.0149 -0.0763,-0.23185 -0.11755,-0.35965 0.13584,0.15082 0.31222,0.34361 0.58263,0.6475 0.43228,0.0944 0.89969,0.47779 1.29688,0.28273 0.83407,-0.40948 1.10783,-1.19274 1.17953,-2.06793 z M 24.610066,196.47552 c 0.15383,0.17551 0.239052,0.27208 0.376647,0.42784 -0.03997,0.0581 -0.0795,0.11421 -0.121396,0.17745 -0.01517,0.003 -0.02981,0.008 -0.04509,0.01 -0.112136,0.0161 -0.04263,-0.38136 -0.132486,-0.31252 -0.0099,0.008 -0.01349,0.0168 -0.01987,0.0254 -0.004,-0.083 -0.02168,-0.18986 -0.05781,-0.328 z M 148.8055,159.10349 c 0.0154,0.0417 0.0306,0.0836 0.0459,0.12542 0.33665,0.9169 0.46461,2.06607 2.24937,0.46692 0.003,-0.002 0.003,-0.005 0.005,-0.008 0.0963,0.20604 0.1942,0.41132 0.2907,0.61727 -0.76428,0.23878 -1.52889,0.47628 -2.29128,0.72119 -0.0619,-0.64711 -0.17329,-1.28651 -0.29997,-1.92329 z m -72.659316,22.03393 c 0.05429,0.02 0.07989,0.0219 0.142164,0.0473 0.04917,0.0198 -0.08465,-0.008 -0.142164,-0.0473 z M 146.3169,160.53287 c 0.15183,0.32787 0.30108,0.65696 0.46591,0.97844 0.0332,0.0647 0.0574,0.15429 0.0834,0.23719 -0.11649,0.0378 -0.2332,0.0751 -0.34971,0.11291 -0.0591,-0.4439 -0.12995,-0.88624 -0.19956,-1.32855 z m -50.2558,15.32419 c 0.0081,0.0273 5.13e-4,0.0979 -0.03998,0.26139 -0.03179,-0.0273 -0.05938,-0.0643 -0.08996,-0.0943 0.04022,-0.0717 0.07291,-0.12334 0.09397,-0.14488 0.01291,-0.009 0.0229,-0.0127 0.03596,-0.0222 z m -77.535674,23.45958 c 0.165116,0.26116 0.479858,0.76151 0.52479,0.8317 -0.07373,0.0323 -0.153811,0.0572 -0.231199,0.0853 -0.196505,-0.22987 -0.352742,-0.42542 -0.456656,-0.56619 0.05951,-0.12005 0.108653,-0.23435 0.163067,-0.35083 z m 9.142599,-2.61026 c -0.01387,0.0419 -0.03424,0.11112 -0.04551,0.1427 -0.005,-0.005 -0.0098,-0.0105 -0.01491,-0.0155 0.01901,-0.0437 0.03436,-0.0861 0.06042,-0.12723 z m -17.522261,5.69981 c 0.166574,0.13161 0.331897,0.26355 0.497729,0.39621 -0.112368,-0.0372 -0.225437,-0.0724 -0.337299,-0.11105 -8.12e-4,-3e-4 -0.0016,-6.1e-4 -0.0025,-9.2e-4 -0.0523,-0.095 -0.105886,-0.18923 -0.157994,-0.28432 z m 33.040353,-9.88144 c 0.02413,0.0203 0.04264,0.0293 0.06811,0.0524 0.04775,0.0431 -0.114713,0.18839 -0.142096,0.13025 -0.0062,-0.0132 -0.01038,-0.0272 -0.01648,-0.0403 0.03028,-0.0486 0.0595,-0.0893 0.09046,-0.14221 z m 7.993481,-2.27911 c 0.01103,0.12347 0.0051,0.22252 0.0095,0.1461 0.0029,-0.0488 -0.0074,-0.0974 -0.0095,-0.1461 z M 158.89843,157.98308 c 0.0649,0.0163 0.12249,0.0557 0.17008,0.12196 -0.035,0.009 -0.0702,0.0178 -0.10523,0.0268 -0.0216,-0.0497 -0.0436,-0.0991 -0.0649,-0.14886 z m -97.811436,29.5843 c 0.149107,-0.0389 0.298306,-0.0775 0.44741,-0.11647 -0.09099,0.1149 -0.249345,0.14725 -0.44741,0.11647 z m -49.32658,17.72374 c 0.142753,0.0438 0.283206,0.0822 0.424447,0.12249 -0.07556,0.0802 -0.140331,0.17326 -0.196067,0.27712 -0.07599,-0.13329 -0.152552,-0.26626 -0.228371,-0.39965 z M 182.91261,155.79641 c 0.25918,-0.028 0.428,-0.0196 0.56119,-0.004 -0.097,0.0496 -0.19589,0.0954 -0.29815,0.13356 -0.0916,0.0339 -0.3602,-0.1191 -0.26303,-0.12964 z m -171.631876,55.80172 1.502708,4.98698 c 0.01736,0.008 0.01919,0.009 0.03654,0.0178 0.538871,0.26692 1.06236,0.56475 1.588165,0.85724 -0.188344,0.44262 -0.358927,0.88938 -0.451262,1.34494 -0.05596,0.006 -0.112432,0.007 -0.168323,0.0146 -0.114529,0.0149 -0.209443,0.0266 -0.320098,0.0392 l 7.430643,24.65982 c 0.02429,0.004 0.04822,0.006 0.07209,0.008 -0.0161,0.0235 -0.03221,0.0471 -0.04833,0.0707 l 0.738754,2.45168 c 0.267358,-0.34959 0.538562,-0.6966 0.74822,-1.08307 0.232505,-0.3413 0.469076,-0.67996 0.697454,-1.02405 0.126896,-0.19118 0.251943,-0.36723 0.367945,-0.54318 0.186314,-0.0461 0.375597,-0.0984 0.580504,-0.17271 0.40392,0.0593 0.808744,0.12132 1.168791,0.18379 l -0.762311,-2.52986 c -0.20902,0.0984 -0.420756,0.19079 -0.632726,0.28241 -0.203054,-0.028 -0.405904,-0.058 -0.60936,-0.0825 -0.09983,-0.0658 -0.229758,-0.0777 -0.377607,-0.0406 -0.307346,-0.0335 -0.614886,-0.0663 -0.923181,-0.0904 -0.06545,-0.0955 -0.141644,-0.19025 -0.2165,-0.28504 0.864312,-0.58412 1.775165,-1.19485 1.798392,-1.21061 0.149553,-0.0911 0.299257,-0.18211 0.448703,-0.27337 l -0.600994,-1.9945 c -0.07448,0.0474 -0.149712,0.0936 -0.223999,0.14143 -0.01195,-0.0304 -0.01566,-0.0525 -0.02846,-0.0837 -0.124753,-0.30499 -1.099612,-0.90567 -1.971792,-1.40495 0.381412,-0.0226 0.916873,0.0348 1.006695,-0.30765 0.214882,-0.81942 -0.24067,-1.67735 -0.360872,-2.51591 -1.228879,-0.93719 -1.504055,-1.15622 -1.798349,-1.35952 -0.04319,-0.0489 -0.09033,-0.0938 -0.13619,-0.1403 0.37077,-0.81049 0.776442,-1.6073 1.066507,-2.44839 l -0.973277,-3.22999 c -0.357159,-0.0809 -0.808577,-0.10629 -1.272846,-0.10273 0.168024,-0.40224 0.220571,-0.84607 0.05675,-1.2034 -0.09268,-0.20218 -0.4966,-0.44873 -1.004599,-0.69738 0.150581,-0.3568 0.292437,-0.7176 0.437729,-1.0764 0.113504,-0.28028 0.336854,-0.71928 0.495849,-1.1916 l -1.441878,-4.78511 c -0.03542,-0.0318 -0.06819,-0.066 -0.10511,-0.0962 -0.03484,-0.0286 -0.07223,-0.0537 -0.107663,-0.0814 0.0025,-0.005 0.005,-0.009 0.0074,-0.0131 0.03251,-0.0567 0.06411,-0.11379 0.09651,-0.17048 l -0.883523,-2.93213 c -0.02329,0.049 -0.06425,0.14347 -0.08856,0.19508 -0.522422,-0.0668 -1.053703,-0.14738 -1.636952,-0.23104 -0.18239,-0.0261 -0.364462,-0.0638 -0.544805,-0.10457 -0.02628,-0.29638 -0.151728,-0.68109 -0.418518,-1.19727 -0.198784,-0.3845 -0.825914,-0.26127 -1.248691,-0.35399 -0.327938,-0.072 -0.659376,-0.13223 -0.989584,-0.19621 z m 68.916861,-16.28465 c -4.535302,1.45839 -7.869124,4.00431 -10.001297,7.63792 0.257844,0.22942 0.516259,0.45831 0.774374,0.68742 0.143684,0.12767 0.74478,0.66086 1.146653,1.01834 -0.423772,-0.0831 -0.846637,-0.17122 -1.270808,-0.25174 -0.200973,-0.038 -0.89543,-0.15773 -1.29058,-0.22958 -0.632798,1.384 -1.03512,2.89114 -1.211092,4.51912 0.544639,0.18209 1.08928,0.36327 1.636532,0.53773 0.02944,0.0739 0.0641,0.14541 0.105095,0.21444 0.0053,0.002 0.0038,7.6e-4 0.0094,0.003 3.4e-5,0.004 -0.0011,0.008 -0.0011,0.0123 4.01e-4,7.1e-4 6.38e-4,10e-4 10e-4,0.002 -2.6e-4,-9e-5 -10e-4,-5.3e-4 -0.0013,-6.9e-4 -1.63e-4,0.108 -0.01694,0.22092 -0.03127,0.33325 -0.609016,0.0706 -1.222825,0.13711 -1.815546,0.20975 -0.02105,0.64264 -0.008,1.3037 0.03686,1.98152 0.545125,-0.0632 1.400929,-0.1542 2.217821,-0.24137 0.373018,0.13989 0.746173,0.27973 1.117861,0.42307 -0.04275,0.0323 -0.09038,0.0587 -0.128524,0.0965 -0.397238,0.39376 -1.470297,1.93559 -1.692124,2.2672 -0.317612,0.47478 -0.621869,0.95833 -0.91641,1.44731 0.170179,0.75265 0.372291,1.52211 0.60994,2.31077 l 0.139552,0.46313 c 0.01361,-0.0277 0.02504,-0.0565 0.03889,-0.084 0.02581,-0.0514 0.05204,-0.0976 0.07788,-0.14815 0.08898,-0.0271 0.178505,-0.0524 0.26749,-0.0795 -0.09773,0.88424 0.03235,1.67028 0.780686,1.84753 -0.201872,0.10502 -0.405961,0.20559 -0.609728,0.30678 l 1.119539,3.71537 c 0.531567,-0.0502 0.67809,-0.0661 1.236098,-0.11772 -0.330372,0.3526 -0.650738,0.71273 -0.942385,1.09246 l 0.03206,0.10636 c 0.2404,0.79781 0.506172,1.55042 0.784285,2.28036 0.0098,-0.0188 0.01735,-0.0463 0.0272,-0.0638 0.204243,-0.36397 0.473706,-0.73991 0.770395,-1.12051 -0.184381,0.7056 -0.206196,1.61806 0.72266,1.87526 0.2812,0.0778 0.554677,0.0899 0.819788,0.0536 -0.04953,0.19146 -0.08534,0.37171 -0.112642,0.54506 -0.509175,0.18882 -1.018665,0.38172 -1.518708,0.41391 0.137,0.29978 0.278646,0.59105 0.423079,0.87746 0.394374,0.0639 0.787442,0.12978 1.171607,0.21096 0.02175,0.0648 0.04384,0.12938 0.07066,0.18974 -0.298948,0.092 -0.598209,0.18323 -0.897491,0.27422 0.906847,1.66418 1.947924,3.08716 3.125381,4.26433 0.596188,0.59605 1.207149,1.12737 1.832248,1.5992 0.604898,-0.22675 1.210808,-0.45131 1.816366,-0.67631 0.217577,0.17346 0.489082,0.23766 0.824038,0.20556 -0.223377,0.40815 -0.568087,0.81743 -0.411716,1.22184 0.132551,0.34283 0.264794,0.61083 0.395889,0.82305 0.414406,0.18927 0.834093,0.35547 1.259761,0.49636 0.371414,-0.23857 0.711308,-0.73155 0.999472,-1.15553 0.0648,-0.0953 0.172837,-0.19111 0.217679,-0.29497 0.03573,0.0671 0.03981,0.0863 0.279293,0.47552 0.152236,0.24735 0.204505,0.61688 0.470424,0.73367 2.015377,0.8851 2.195423,0.23373 2.236257,-1.11695 0.24993,-0.089 0.466077,-0.33287 0.65446,-0.60253 0.04179,0.0353 0.07874,0.0749 0.124417,0.10661 0.715421,0.49692 1.734508,0.41295 2.596972,0.2915 0.547844,-0.0773 3.860633,-1.39304 5.231383,-1.92932 0.538534,1.12571 1.466913,1.39233 2.519564,1.35647 1.360942,-0.72731 2.566867,-1.56988 3.613877,-2.53108 1.06449,-0.97725 1.93706,-2.13584 2.62556,-3.46814 -0.0912,0.037 -0.18278,0.0788 -0.27481,0.12329 -0.60906,-1.11139 -0.55234,-0.98711 -0.85952,-1.7169 0.71461,-0.17988 1.46141,-0.36904 2.015,-0.50786 0.22149,-0.66373 0.4113,-1.35701 0.55992,-2.08956 0.32765,-1.61507 0.41527,-3.34637 0.26448,-5.19242 -0.0192,0.0179 -0.0392,0.039 -0.0584,0.057 -0.0901,-0.0489 -0.18027,-0.0979 -0.2704,-0.14678 0.0575,-0.006 0.11533,-0.01 0.17277,-0.0159 0.0365,0.0231 0.10028,0.0488 0.15268,0.0733 -0.055,-0.66143 -0.15037,-1.34213 -0.26669,-2.03317 -0.0349,-0.009 -0.0752,-0.0156 -0.10652,-0.0281 -0.39986,0.045 -0.80098,0.0794 -1.20204,0.1161 0.11495,-0.18477 0.21082,-0.37691 0.24677,-0.59248 0.005,-0.0304 3.4e-4,-0.0573 -0.005,-0.0837 0.29931,-0.14213 0.5914,-0.29605 0.87097,-0.4697 -0.18386,-0.88107 -0.40791,-1.78179 -0.6873,-2.70898 L 102.6447,208.171 c -0.7325,-2.4309 -1.6503,-4.53348 -2.746174,-6.31942 -0.08026,0.17407 -0.141704,0.34273 -0.172125,0.50523 -0.06155,-0.38632 -0.135115,-0.76727 -0.230305,-1.13687 -1.526051,-2.2877 -3.375357,-4.00192 -5.553035,-5.13307 -3.603629,-1.89397 -7.594784,-2.31406 -11.970484,-1.27039 0.0225,0.16205 0.03706,0.27868 0.05609,0.41542 -0.01193,0.007 -0.02401,0.0148 -0.03596,0.0222 -0.535524,0.0816 -1.0679,0.20034 -1.598606,0.32788 -0.06793,-0.0938 -0.128592,-0.17491 -0.196236,-0.26793 z m -10.103064,14.14949 c 2.6e-5,-2.8e-4 2.77e-4,-9.1e-4 1.6e-4,-9.9e-4 -0.0029,-0.005 -0.0056,-0.01 -0.0082,-0.0148 -0.229716,-0.0696 -0.19542,-0.0571 0.008,0.016 z m -43.749681,2.72485 c -0.26764,0.0806 -0.46293,0.29296 -0.586461,0.63656 -0.105879,0.29451 -0.12274,0.56179 -0.05015,0.80255 0.07254,0.24076 0.147877,0.43721 0.225976,0.58874 l 0.07856,0.12638 c 0.304805,0.0645 0.612926,0.12202 0.90172,0.21612 0.749548,-0.56568 1.471797,-1.16345 2.177886,-1.77994 0.0075,0.008 0.01521,0.016 0.02333,0.0238 -0.28963,0.29 -0.570586,0.58457 -0.708356,0.93235 -0.377781,0.25424 -0.341153,0.23213 -0.832452,0.56172 0.03765,0.20666 0.03826,0.44103 0.02969,0.68242 -0.0093,0.017 -0.0098,0.0323 -6.63e-4,0.0461 -0.03019,0.74965 -0.14099,1.55973 0.440745,1.84956 0.598723,0.2983 1.269497,0.11802 1.945764,-0.13402 -0.09345,0.19489 -0.189418,0.38859 -0.282314,0.58376 0.26813,0.37802 0.388319,1.05255 0.70473,1.33392 -0.37358,0.37621 -0.710461,0.77302 -0.976693,1.20967 l 1.191009,1.92141 c 0.05765,0.003 0.117992,0.01 0.169977,0.007 0.151911,-0.008 0.795015,-0.18156 1.667323,-0.43656 0.316977,0.17865 0.643483,0.34772 0.9331,0.55323 0.669098,-0.11555 1.333772,-0.25138 1.99623,-0.39642 -0.06158,0.15739 -0.101977,0.25996 -0.224075,0.57107 0.1339,0.004 0.27099,0.0269 0.407123,0.0435 0.01234,0.17002 0.03877,0.33942 0.08357,0.50481 -0.03962,0.043 -0.07996,0.0852 -0.119487,0.1283 -0.505785,0.0511 -1.056652,0.1286 -2.067473,0.2997 -0.616991,0.10438 -1.357667,-0.009 -1.905636,0.2439 l 3.525665,5.68947 c 0.160368,-0.17763 0.516849,-0.59668 0.742704,-0.85419 -0.02988,0.0886 -0.0401,0.17929 -0.01288,0.27429 0.135222,0.47222 0.504134,0.82062 0.878655,1.16601 -0.05103,0.0921 -0.100176,0.18511 -0.151274,0.27713 -0.03053,0.0543 -0.269515,0.4803 -0.43814,0.7813 l 11.795436,19.03604 c 0.203941,0.32673 0.422182,0.58434 0.651598,0.78864 0.150772,-0.23668 0.06623,-0.71031 -0.06544,-1.22919 0.124465,-0.37575 0.124823,-0.78762 0.09287,-1.20887 0.570862,0.31551 1.024014,0.81551 1.549783,1.2045 0.562212,0.41594 1.010441,1.19597 1.709478,1.21684 0.01295,-4e-5 0.02655,-9.5e-4 0.03961,-0.001 l 1.708507,-0.51481 c 0.216568,-0.15883 0.398635,-0.3501 0.510005,-0.58222 0.10038,-0.20922 0.158588,-0.42882 0.20125,-0.65217 0.771987,-0.11672 1.543963,-0.32521 2.315949,-0.5068 0.32539,0.17759 0.650402,0.35623 0.975149,0.53517 l 2.695116,-0.8121 c -0.242476,-0.12913 -0.485331,-0.2579 -0.726644,-0.38931 0.792277,-0.20564 1.577708,-0.43439 2.362726,-0.665 0.226837,-0.42934 0.324253,-0.99212 0.288888,-1.69216 l -0.01504,-0.47797 c -1.309837,0.39579 -2.624726,0.77429 -3.955112,1.09948 -0.01405,-0.0463 -0.08863,-0.12557 -0.167163,-0.21085 0.07917,-0.0717 0.155765,-0.14894 0.238963,-0.21179 -0.166124,-1.09218 -0.402796,-2.16885 -0.681648,-3.23475 0.33408,0.36289 0.688874,0.69531 1.142286,0.84803 1.974569,0.66509 2.853308,0.17577 2.949132,-1.5077 0.130406,0.17098 0.260041,0.34244 0.388336,0.51499 l -1.211103,-38.31051 c -0.01861,-0.16946 -0.06437,-0.37482 -0.136915,-0.61558 -0.07255,-0.24074 -0.249032,-0.44979 -0.52974,-0.62781 -0.263059,-0.22711 -0.528346,-0.30064 -0.795977,-0.22002 l -1.657545,0.49946 c -0.275319,0.19615 -0.551634,0.39082 -0.826033,0.58839 0.05644,-0.12863 0.108764,-0.25694 0.150649,-0.38488 l -4.727725,1.42459 c -0.180982,0.29211 -0.359087,0.62712 -0.571282,0.98603 -0.353948,0.59868 -0.6131,1.11657 -0.857135,1.63509 -0.04074,0.0418 -0.08258,0.0825 -0.123439,0.1241 -0.162762,0.0957 -0.676082,0.396 -0.799501,0.46867 -0.03519,-0.13533 -0.0717,-0.27051 -0.103105,-0.40664 -0.09412,-0.4081 -0.163326,-1.13571 -0.47504,-1.49058 0.05745,-0.0839 0.113307,-0.16891 0.169712,-0.25354 0.162932,-0.0776 0.323189,-0.16064 0.486564,-0.23728 0.296621,-0.13914 0.596344,-0.27233 0.893763,-0.41017 l -0.971764,0.29281 c -1.070557,0.32259 -1.540255,1.18619 -1.4089,2.59095 l 1.07023,14.49377 c 0.689712,-0.40984 1.371583,-0.77494 2.076526,-0.54907 0.40073,0.12843 0.177194,0.51157 -0.179806,0.94903 -0.56717,0.0902 -1.144895,0.18909 -1.844186,0.30636 l 0.28772,3.90125 c 0.665862,-0.51063 -0.0272,0.0202 1.664076,-1.27484 0.489878,-0.39858 0.987898,-0.78783 1.484073,-1.17905 0.202345,-0.0258 0.405783,-0.0474 0.60858,-0.0706 -0.273531,0.35415 -0.504319,0.72322 -0.637354,1.11605 -1.046408,0.47774 -2.087626,0.96511 -3.114903,1.46266 l 0.222294,3.01425 c 0.323263,-0.1538 0.507085,-0.23527 0.762811,-0.35398 0.312096,0.0616 0.570485,0.11769 0.901617,0.18004 -0.02844,0.23461 -0.05663,0.46928 -0.07967,0.70459 -0.511255,0.0462 -1.021741,0.1088 -1.532015,0.17991 l 0.126622,1.717 -0.89903,-1.60084 c -0.112583,0.0189 -0.225216,0.0355 -0.337749,0.0559 0.07107,-0.1157 0.125476,-0.21743 0.187449,-0.32364 l -5.268398,-9.38275 c -0.289094,0.0376 -0.552397,0.0801 -0.784571,0.12955 0.124686,-0.27803 0.23913,-0.53459 0.355039,-0.81887 0.03569,0.0386 0.07176,0.0768 0.107153,0.1156 l -5.43596,-9.68091 c -0.264041,-0.44566 -0.634703,-0.81535 -1.112458,-1.10907 -0.460113,-0.34281 -0.958085,-0.43344 -1.493368,-0.27212 z m 79.23856,-23.87663 c -0.0164,0.10018 -0.0304,0.20103 -0.0533,0.29942 -0.0594,0.25558 -0.12307,0.51035 -0.18702,0.76484 -0.18403,0.11942 -0.40164,0.25883 -0.57895,0.37307 -0.34878,0.2404 -0.61964,0.42718 -0.94105,0.64733 0.0141,0.0679 0.0257,0.13549 0.0465,0.20456 l 0.70789,2.34926 c 0.17987,-0.10886 0.36212,-0.21347 0.54294,-0.32065 0.23066,0.1697 0.46156,0.33712 0.7049,0.45683 -0.37038,0.1055 -0.74104,0.21072 -1.11023,0.32051 l 1.89304,6.28234 c 0.13299,0.44137 0.36668,0.78665 0.70129,1.03596 0.33463,0.24932 0.66554,0.32461 0.9926,0.22619 l 8.16304,-2.45973 5.25941,17.45419 -8.16303,2.45973 c -0.32712,0.0986 -0.56133,0.34414 -0.70252,0.73683 -0.0899,0.24986 -0.11805,0.51084 -0.0968,0.78044 0.70788,-0.47924 1.41415,-0.96149 2.11864,-1.44637 0.0339,0.0635 0.0935,0.11034 0.19602,0.1293 0.22653,0.0419 0.43495,-0.002 0.63419,-0.0913 0.0185,0.0146 0.0387,0.0283 0.0562,0.043 -0.30158,0.13799 -0.63925,0.27457 -0.60083,0.55129 0.0356,0.25626 0.16374,0.47677 0.3158,0.68797 -0.20502,0.18433 -0.39347,0.36832 -0.56567,0.55149 -0.20978,0.0753 -0.41915,0.15835 -0.62924,0.22955 -0.35396,0.11995 -0.86031,0.27863 -1.26217,0.40731 l 2.06122,6.84047 c 0.34836,0.23673 0.74726,0.41993 1.13062,0.61946 -0.007,0.0105 -0.0405,-0.10023 -0.008,-0.12332 0.002,-0.001 0.006,-0.004 0.008,-0.005 8.8e-4,0.0435 0.002,0.0868 0.003,0.13022 0.11246,0.0586 0.22464,0.11754 0.33046,0.18323 -0.23278,0.29551 -0.51372,0.66107 -0.87388,1.09233 0.13874,0.3268 0.33968,0.59434 0.61003,0.79577 0.33463,0.24931 0.66553,0.32459 0.9926,0.22619 l 0.20237,-0.061 c 0.20418,-0.2642 0.36122,-0.45716 0.52471,-0.66598 0.19817,0.18684 0.39026,0.30764 0.57126,0.33574 l 3.71586,-1.11969 c 10e-4,-0.40968 -0.0142,-0.79093 -0.0345,-1.18561 0.46025,0.53808 1.11123,0.76417 2.17247,0.15441 0.0931,-0.0535 0.17062,-0.12378 0.24254,-0.19991 0.1524,0.13578 0.30434,0.25094 0.45761,0.37591 l 3.72231,-1.12162 c -0.009,-0.049 -0.0224,-0.0991 -0.0271,-0.14728 -0.15876,-1.62678 -0.36541,-3.26999 -0.84268,-4.83667 -0.198,-0.18607 -0.36478,-0.43835 -0.54197,-0.66839 0.0203,-0.0425 0.0386,-0.0857 0.0592,-0.12793 0.26498,-0.0988 0.53032,-0.19653 0.79407,-0.29863 0.11012,0.27679 0.28753,0.5267 0.42406,0.79297 0.69113,1.05435 1.10709,2.24162 1.5642,3.40706 -0.52577,0.13554 -1.25138,0.20846 -1.08395,0.60296 0.18047,0.42525 0.57934,0.66426 1.02698,0.86118 -1.8e-4,3.4e-4 -5.1e-4,9.1e-4 -6.1e-4,8.8e-4 l 8.24669,-2.48494 c -0.0234,-0.26463 -0.16534,-0.57597 -0.46028,-0.94181 0.10723,-0.10213 0.20728,-0.20491 0.30176,-0.3079 0.14384,0.2168 0.2865,0.43443 0.43399,0.64858 0.091,0.14435 0.1691,0.29446 0.25396,0.4416 l 1.96679,-0.59264 c -0.12371,-0.22988 -0.26237,-0.45293 -0.39833,-0.67713 0.0426,-0.008 0.0856,-0.0202 0.12853,-0.0301 0.2241,0.0264 0.46591,-0.0336 0.70431,-0.11292 0.11898,0.2383 0.24807,0.42982 0.38682,0.57266 l 3.7698,-1.13594 c 0.32712,-0.0986 0.56133,-0.34414 0.70252,-0.73683 0.14112,-0.39269 0.14505,-0.81006 0.012,-1.25145 l -2.7384,-9.0878 c -0.133,-0.44137 -0.36683,-0.78713 -0.70144,-1.03646 -0.33463,-0.24931 -0.66554,-0.32459 -0.99261,-0.22619 l -8.07398,2.4329 -3.64233,-12.08771 c -0.20482,0.0256 -0.38913,0.0454 -0.59685,0.0719 0.18052,-0.0851 0.36165,-0.16886 0.54169,-0.25497 l -1.56191,-5.18342 8.07399,-2.4329 c 0.3271,-0.0986 0.56132,-0.34413 0.7025,-0.73683 0.14122,-0.39266 0.14515,-0.80959 0.0122,-1.25094 l -2.73854,-9.0883 c -0.12819,-0.42543 -0.35263,-0.75956 -0.66814,-1.00655 -0.27047,0.0616 -0.54062,0.12472 -0.81034,0.18912 -0.11501,-0.11908 -0.26552,-0.16279 -0.45142,-0.15647 0.11054,-0.10138 0.22083,-0.20308 0.33141,-0.30442 -0.0318,0.006 -0.0638,0.006 -0.0956,0.0159 l -13.61166,4.10155 c -0.0695,0.13806 -0.1288,0.28037 -0.15984,0.43512 -0.0304,0.15129 -0.0308,0.30241 -0.0205,0.45306 -0.13816,0.0487 -0.25872,0.0891 -0.3972,0.13804 -0.0977,-0.32536 -0.22512,-0.57139 -0.38138,-0.7373 l -10.06402,3.03255 c -0.20664,0.13011 -0.38665,0.25028 -0.59162,0.38121 0.001,-0.0667 -0.006,-0.13318 -0.011,-0.19961 z m 10.63703,40.13499 c -9.1e-4,-5.1e-4 -0.002,-0.001 -0.004,-0.002 5.2e-4,-9.1e-4 0.004,0.0111 0.004,0.007 1e-5,-0.002 1.4e-4,-0.004 1.7e-4,-0.005 z M 142.277,177.25445 c -0.32711,0.0986 -0.56133,0.34414 -0.70251,0.73683 -0.11541,0.3209 -0.134,0.65905 -0.0662,1.0125 0.15473,-0.066 0.3106,-0.1299 0.46448,-0.19772 0.57059,-0.0982 1.47385,-0.25507 2.29099,-0.39619 -0.0994,0.19859 -0.17651,0.44008 -0.2243,0.74599 -0.92585,0.38338 -1.58368,0.65405 -1.05723,1.77526 -0.26873,0.11559 -0.53618,0.23649 -0.80196,0.36201 l 0.67912,2.25376 c 0.73041,-0.24529 1.44833,-0.51267 2.12774,-0.84839 0.0135,0.0401 0.0264,0.0802 0.04,0.12017 -0.66588,0.33762 -1.3958,0.69801 -1.97648,1.00467 -0.0265,0.014 -0.0665,0.0323 -0.0939,0.0466 l 0.59144,1.96283 c 0.16152,-0.0875 0.3199,-0.18116 0.48268,-0.26633 0.53506,-0.27999 1.15772,-0.58613 1.73381,-0.87865 0.19295,0.43182 0.3943,0.85969 0.60932,1.28063 -0.56158,0.47515 -1.05602,1.03046 -1.59253,1.53556 -0.062,0.3397 -0.29092,0.72905 -0.40313,1.08378 l 0.61665,2.04645 c 0.15302,-0.0432 1.10647,-0.31207 1.18832,-0.33541 0.71414,0.18064 1.4737,0.15618 2.22608,0.0422 0.081,0.0557 0.15924,0.11171 0.2612,0.16471 0.15654,0.0813 0.32353,0.11736 0.49463,0.1316 -0.71321,1.32544 -0.57661,1.08322 -2.19153,4.02549 -0.16317,0.29729 -0.33086,0.59248 -0.49716,0.88814 l 4.85596,16.11529 c 0.0114,-0.009 0.15718,-0.11226 0.16463,-0.11815 0.3822,-0.30241 0.73938,-0.6343 1.08997,-0.9734 0.003,0.002 0.004,0.004 0.006,0.006 0.0799,0.2428 0.24861,0.47558 0.45279,0.68231 -0.49505,0.49682 -0.96197,0.97988 -1.39901,1.44702 l 1.63107,5.41299 c 0.133,0.44138 0.36683,0.78715 0.70145,1.03646 0.20509,0.1528 0.40865,0.23204 0.6109,0.25416 0.36634,-0.14767 0.73334,-0.29392 1.09984,-0.44096 0.44621,-0.17904 1.06468,-0.43209 1.63057,-0.66243 -0.0267,0.0643 -0.0256,0.0585 -0.0537,0.12628 -0.0363,0.0877 -0.0594,0.18528 -0.0827,0.28239 l 4.03303,-1.21525 c 0.0861,-0.28614 0.1688,-0.59776 0.2645,-0.92222 2.2945,-0.97652 4.59931,-2.00063 6.11178,-2.78506 0.0586,0.0904 0.11712,0.17 0.17608,0.26376 0.59072,0.87844 0.7554,1.49157 2.26136,-0.58588 0.24135,-0.33296 0.15835,-0.77965 0.11479,-1.21495 0.24314,-0.15779 0.48723,-0.31411 0.73184,-0.46932 0.0736,0.19892 0.14493,0.39863 0.21985,0.59706 0.22405,0.59351 0.48554,1.44224 0.84225,1.71509 0.26741,-0.11548 0.52992,-0.23483 0.78696,-0.35804 0.0385,-0.059 0.0788,-0.13432 0.11903,-0.20693 0.0837,0.0196 0.16154,0.0339 0.22589,0.035 0.11333,-0.0569 0.22934,-0.11161 0.34058,-0.17008 0.0864,-0.16629 0.0497,-0.43083 -0.0346,-0.70955 0.0627,-0.0831 0.11665,-0.18022 0.16112,-0.29466 0.1038,0.28578 0.2147,0.53925 0.36914,0.73073 1.02994,-0.5798 1.96668,-1.22907 2.80655,-1.95048 -0.0293,-0.21247 -0.0831,-0.50454 -0.14201,-0.81698 0.0721,0.0869 0.1438,0.17436 0.21671,0.2607 0.0788,0.0933 0.15509,0.18712 0.23347,0.28046 1.08641,-0.98393 2.0085,-2.09079 2.75809,-3.32565 2.32905,-3.89688 2.52619,-9.05492 0.59169,-15.47489 l -1.84995,-6.13936 c -1.24535,-4.13286 -3.02869,-7.35928 -5.34983,-9.67987 -2.26203,-2.26147 -4.73341,-3.622 -7.41163,-4.09538 0.19751,0.30714 0.34066,0.52832 0.49055,0.76106 0.008,0.12002 0.019,0.23991 0.0232,0.36002 0.009,0.24832 0.0162,0.49678 0.0238,0.74519 -0.0108,-0.0311 -0.0222,-0.062 -0.033,-0.0931 -0.20555,-0.59673 -0.40448,-1.1957 -0.60586,-1.79387 -0.036,-0.006 -0.0713,-0.0159 -0.10752,-0.0212 -2.75939,-0.43779 -5.77514,-0.16391 -9.04628,0.82176 l -0.65214,0.19651 c -0.0246,0.12207 -0.042,0.2457 -0.0482,0.37724 -0.38295,0.13216 -0.76516,0.26586 -1.15068,0.39044 -0.13604,0.0439 -0.27366,0.083 -0.41006,0.12578 -0.078,-0.11376 -0.15817,-0.2247 -0.23805,-0.33684 l -7.19077,2.16676 c -0.006,0.0114 -0.009,0.0283 -0.0145,0.0399 -0.0632,0.0119 -0.132,0.024 -0.19641,0.036 0.008,-0.006 0.0162,-0.013 0.0242,-0.0197 z m -23.24068,8.00636 c 0.0177,0.003 0.0361,0.0126 0.054,0.0158 0.002,0.01 0.005,0.0191 0.006,0.0289 -0.0219,-0.0165 -0.0352,-0.0257 -0.0605,-0.045 z m -58.304385,17.99716 c -0.07002,0.16389 -0.134448,0.33152 -0.215911,0.48711 -0.544251,1.03951 -0.905981,2.20601 -1.663438,3.10213 -0.330659,0.39119 -0.95461,0.37294 -1.431714,0.55932 -0.47735,-0.51648 -0.794609,-0.84855 -1.110814,-1.22182 0.160566,-0.0941 0.115938,-0.0684 0.284751,-0.16731 0.8983,-0.63683 2.632286,-1.55972 4.137122,-2.75943 z m 24.320718,-6.08064 c 0.05169,0.0183 0.102263,0.0443 0.15294,0.0705 -0.112081,0.0467 -0.236413,0.0967 -0.345665,0.14248 0.02578,-0.0293 0.05199,-0.0582 0.07776,-0.0877 0.03736,-0.0426 0.07726,-0.083 0.114973,-0.12531 z m -69.032675,21.09278 c 0.305154,0.10729 0.625432,0.17581 0.934189,0.27389 0.153656,0.007 0.488931,0.005 0.649664,0.012 -0.02268,0.0101 -0.04644,0.0204 -0.06905,0.0305 -0.587119,0.0716 -1.178669,0.0947 -1.771166,0.11164 0.087,-0.14173 0.171478,-0.28504 0.256368,-0.42806 z m 11.996474,-3.56898 c 0.02024,0.004 0.04124,0.0128 0.06148,0.0175 -0.01627,0.006 -0.03298,0.0101 -0.04902,0.0164 -0.0052,-0.0181 -0.0067,-0.0128 -0.01246,-0.0341 z M 132.05517,185.27997 c 0.19343,-0.009 0.39449,-0.0307 0.60492,-0.0684 -0.027,0.0411 -0.0527,0.0805 -0.0791,0.12096 -0.33955,0.13149 -0.78995,0.3101 -1.11366,0.43272 -0.0305,-0.0675 -0.0666,-0.13191 -0.10284,-0.19623 5e-5,-0.003 4e-4,-0.006 3.4e-4,-0.0102 0.23069,-0.0917 0.46175,-0.18222 0.69034,-0.27926 z M 55.874699,208.3938 c 0.7532,0.41009 1.659328,0.50748 2.478034,0.78339 0.58544,-0.3581 0.895541,-0.53066 1.229322,-0.72231 -0.03098,0.0703 -0.06259,0.14033 -0.09359,0.21063 -0.194385,0.0946 -0.384019,0.19631 -0.566523,0.29969 -0.402595,0.22803 -1.000978,0.76397 -1.614738,1.34903 -0.01246,-0.0199 -0.02143,-0.0385 -0.03441,-0.0587 -0.227322,-0.3523 -0.82729,-0.0927 -1.250497,-0.12351 -0.0491,-0.57962 -0.09851,-1.15895 -0.147587,-1.7382 z m 32.61259,-9.76604 c 0.07639,-0.0228 0.148446,-0.0431 0.22376,-0.0652 -0.06013,0.13852 -0.119259,0.2774 -0.179017,0.41609 -0.01566,-0.12083 -0.0258,-0.23018 -0.04473,-0.35083 z m -3.113008,0.98715 c -0.137312,0.1588 -0.287621,0.31217 -0.440999,0.46373 -0.203693,0.0529 -0.4063,0.1098 -0.610101,0.16226 -0.01946,-0.0118 -0.03832,-0.0281 -0.05767,-0.0409 0.265575,-0.15496 0.610473,-0.35241 0.880131,-0.50915 0.0775,-0.0255 0.150531,-0.0502 0.228633,-0.0759 z m -68.747458,21.63453 c -0.04062,0.10432 -0.08816,0.20973 -0.132416,0.31462 -0.133752,-0.0161 -0.271665,-0.0195 -0.412189,-0.0156 0.179042,-0.10411 0.362101,-0.20106 0.544599,-0.29903 z M 168.30085,176.04859 c 0.19782,0.26177 0.35735,0.57337 0.53878,0.85664 0.0786,0.31983 0.13887,0.67631 0.42073,0.73352 0.53758,0.10914 0.93251,0.12906 1.22777,0.0839 0.25442,-0.004 0.50668,-0.0383 0.75049,-0.1047 0.17573,0.27888 0.38879,0.52148 0.6656,0.72937 0.002,0.006 0.004,0.0111 0.005,0.0166 -0.44355,0.11223 -0.50444,0.16883 0.0359,0.11171 0.005,0.0143 0.009,0.0282 0.0138,0.0423 -1.08649,0.2592 -2.17107,0.52631 -3.25639,0.79071 -0.24409,-0.33863 -0.55708,-0.62309 -0.88521,-0.8958 0.0695,-0.092 0.13345,-0.1879 0.1854,-0.29281 0.19161,-0.38718 0.26958,-1.20466 0.29764,-2.07152 z m -6.00612,2.04134 c 0.13472,0.19112 0.2732,0.37514 0.42607,0.52736 -0.0732,0.048 -0.17892,0.11268 -0.26149,0.16569 -0.0549,-0.23103 -0.11175,-0.46156 -0.16458,-0.69305 z m -27.83768,8.77034 c 0.0108,0.0314 0.0218,0.0614 0.0378,0.0825 0.14254,0.18798 0.27707,0.32793 0.40721,0.44508 -0.68166,0.26285 -1.26137,0.49893 -1.82129,0.73339 0.26375,-0.33401 0.50668,-0.66669 0.7176,-0.98047 0.1637,-0.0691 0.3245,-0.13736 0.65866,-0.28052 z m 19.10551,-5.55568 c 0.0237,0.002 0.047,0.006 0.0705,0.008 0.17577,0.0694 0.36227,0.11938 0.54449,0.17702 0.0157,0.0551 0.004,0.0111 0.018,0.0616 -0.14943,0.0331 -0.20449,0.0444 -0.34174,0.0749 -0.0946,-0.10443 -0.18628,-0.19702 -0.28275,-0.31148 -0.003,-0.004 -0.006,-0.006 -0.009,-0.0102 z m -26.03811,8.04187 c 0.007,0.0108 0.0175,0.0242 0.0248,0.0357 -0.12592,0.34941 -0.41721,1.14699 -0.48591,1.846 -0.34863,0.17358 -0.66978,0.39075 -0.96908,0.63851 0.009,-0.12556 -0.005,-0.25801 -0.0688,-0.40564 -0.22948,-0.53286 -0.66425,-0.85359 -1.20879,-1.0401 0.11965,-0.0643 0.23342,-0.13978 0.35162,-0.20688 1.18296,-0.43464 1.52241,-0.56262 2.3562,-0.86758 z m -32.014112,9.85718 c -0.01376,0.0253 -0.02505,0.0438 -0.03863,0.0689 -0.03205,-0.0106 -0.05541,-0.0182 -0.08883,-0.0301 0.03942,-0.0124 0.08883,-0.0267 0.127499,-0.0389 z m 92.279992,-27.59048 c 0.0285,-0.0191 0.0565,-0.03 0.0777,-0.0234 0.003,8.4e-4 0.006,0.004 0.01,0.004 -0.0755,0.0606 -0.10331,0.0859 -0.21283,0.16776 -0.0534,0.0399 0.0399,-0.0917 0.12564,-0.14904 z M 31.845821,218.83538 c 0.32664,0.0391 0.618487,-0.0579 0.911706,-0.22885 -0.0033,0.004 -0.0082,0.0103 -0.01135,0.0142 -0.23062,0.28424 -0.500268,0.53541 -0.740626,0.81091 -0.584841,0.16726 -1.172594,0.32363 -1.768735,0.44392 -0.199752,0.0403 0.145452,-0.4266 0.328724,-0.51571 0.41517,-0.20187 0.845813,-0.36761 1.280299,-0.5245 z M 188.16661,171.73887 c 0,0 6.6e-4,3.7e-4 6.6e-4,3.7e-4 -4.3e-4,4e-4 -7.4e-4,8.5e-4 -0.001,0.002 1e-4,-1.9e-4 4.9e-4,-0.002 5.8e-4,-0.002 z M 40.023882,216.67983 c 0.0038,8.1e-4 0.0073,0.002 0.01104,0.003 -0.0055,7.6e-4 -0.01122,0.001 -0.01682,0.002 0.0018,-0.002 0.0039,-0.003 0.0058,-0.005 z M 148.17132,184.22227 c 0.18373,0.008 0.367,0.0142 0.52549,0.0208 0.002,0.006 0.0133,0.0432 0.0156,0.0498 0.005,0.0441 0.0148,0.0872 0.018,0.13163 -0.22827,0.13854 -0.46782,0.28173 -0.67351,0.40857 -0.0517,-0.10389 -0.10598,-0.20549 -0.15659,-0.3101 0.0892,-0.10078 0.17729,-0.20231 0.27098,-0.30078 z m 16.19499,-4.4428 c 0.097,0.13006 0.18886,0.26377 0.28861,0.39176 0.0237,-0.006 0.05,-0.007 0.0739,-0.0125 0.0234,0.0592 0.0576,0.0952 0.11206,0.0872 -0.5558,0.13537 -1.11226,0.26856 -1.6683,0.40285 0.37912,-0.28735 0.77076,-0.58548 1.1937,-0.86918 z m -55.14743,16.71882 c -0.20814,0.59077 -0.39399,1.12918 -0.60372,1.7417 -0.0246,0.0355 -0.0549,0.08 -0.0796,0.11571 -0.26333,0.15036 -1.29223,0.73232 -1.66343,0.9438 0.0692,-0.57448 0.55699,-1.36227 0.85892,-1.79754 0.33679,-0.26189 0.66421,-0.5355 0.98805,-0.81369 0.1664,-0.0639 0.3334,-0.12598 0.49974,-0.18999 z m -34.421051,10.75515 c 0.12009,0.0262 0.239992,0.0533 0.360084,0.0795 0.0328,0.0284 0.0833,0.0725 0.114021,0.0989 -0.320957,0.33756 -0.66232,0.52202 -0.47415,-0.17825 z m 90.318101,-27.16068 c 0.47439,-0.0614 0.96673,-0.0879 1.3728,-0.28197 0.009,0.007 0.026,0.0199 0.035,0.0267 -0.54367,0.13287 -1.08788,0.26312 -1.63164,0.39558 0.0816,-0.0376 0.15511,-0.0858 0.2238,-0.1403 z m 25.07447,-7.12921 c 0.1241,-0.0734 0.27463,0.20612 0.25518,0.34894 -0.0461,0.33893 -0.29299,1.02287 -0.55931,1.70996 -0.13694,-0.0476 -0.26771,-0.0903 -0.37572,-0.11669 -0.15121,-0.0366 -0.39157,0.0886 -0.46435,-0.049 -0.15236,-0.28798 -0.10348,-0.622 0.0344,-0.95865 0.32283,-0.11701 0.64542,-0.23406 0.96824,-0.35113 0.0468,-0.19456 -0.0307,-0.48163 0.1413,-0.5835 z M 56.876529,213.57057 c 0.133091,-0.013 0.265806,-0.0293 0.398844,-0.043 -0.07301,0.14975 -0.145875,0.29961 -0.221796,0.44787 -0.315345,0.61583 -0.367632,0.72182 -0.382199,0.74664 -0.02765,0.003 -0.06023,0.008 -0.08829,0.0115 -0.01355,-0.2277 -0.06629,-0.45796 -0.122204,-0.68855 0.06508,-0.0828 0.12625,-0.15864 0.191363,-0.23901 0.07489,-0.0784 0.149606,-0.15682 0.224281,-0.23543 z m 94.588011,-28.42626 c 0.037,0.0198 0.0744,0.0395 0.10995,0.0586 -0.14856,0.13255 -0.26286,0.24294 -0.38297,0.3572 -0.0217,-0.0749 -0.0483,-0.1506 -0.0735,-0.22612 0.10566,-0.0592 0.22981,-0.12638 0.34655,-0.1897 z m -62.47218,18.93891 c 0.03526,0.003 0.07053,0.007 0.105986,0.01 0.0043,3.5e-4 0.01007,0.003 0.01444,0.003 -0.04788,0.0372 -0.09626,0.0736 -0.14415,0.1109 0.0073,-0.0415 0.0177,-0.0814 0.02375,-0.12371 z m -28.65847,9.07163 c 0.07721,-0.0104 0.167551,-0.0218 0.241905,-0.0319 -0.01927,0.22711 -0.03289,0.44277 -0.04678,0.68658 -0.143153,-0.0202 -0.288796,-0.0229 -0.437274,-0.002 0.08021,-0.21771 0.162289,-0.43478 0.24214,-0.65263 z m 88.89208,-26.72397 c 0.0515,0.23397 0.0983,0.46864 0.14861,0.70273 -0.12096,-0.19244 -0.24227,-0.38466 -0.36333,-0.57704 0.0498,-0.0292 0.16031,-0.094 0.21472,-0.12569 z m -22.26261,6.78873 c 0.0901,0.1418 0.18414,0.27853 0.28184,0.41053 -0.007,0.13795 -0.0184,0.27601 -0.0205,0.41367 -0.0305,0.20625 -0.0504,0.33678 -0.0787,0.5305 -0.021,0.005 -0.0507,0.0125 -0.07,0.0167 -0.0929,0.0203 -0.23495,0.0611 -0.34276,0.0876 -0.01,-0.16204 -0.0253,-0.32283 -0.041,-0.48363 0.0524,-0.0931 0.10436,-0.1865 0.15045,-0.28336 0.10221,-0.2145 0.11969,-0.45092 0.12072,-0.6921 z m 20.41633,-5.47194 c 0.0227,0.0379 0.0462,0.0753 0.0692,0.11303 -0.0171,0.005 -0.24326,0.0692 -0.25848,0.0736 0.0503,-0.0497 0.14426,-0.14264 0.18934,-0.18659 z m -63.215202,19.16335 c 1.397671,-0.42116 2.636899,-0.29112 3.7179,0.38982 0.340592,0.19588 0.648801,0.44613 0.931447,0.73939 0.262214,-0.0232 0.521107,-0.0462 0.800921,-0.0735 -0.08891,0.12251 -0.173943,0.24865 -0.250357,0.36743 -0.07567,0.0265 -0.151115,0.0531 -0.226946,0.0797 0.474394,0.6068 0.855922,1.36999 1.136777,2.30206 l 0.141639,0.47004 c 0.785279,-0.16254 1.566276,-0.34268 2.336126,-0.55983 0.04068,-0.0114 0.08334,-0.0311 0.125314,-0.048 0.102023,0.0536 0.207664,0.10101 0.315382,0.14565 -0.04034,0.2456 0.01228,0.50093 0.142774,0.71204 -0.09903,0.0736 -0.200358,0.14648 -0.282007,0.22476 -0.215088,0.1561 -0.507685,0.36531 -0.739732,0.5327 -0.06693,0.0286 -0.133887,0.0572 -0.200804,0.0859 -0.246914,0.17007 -0.812679,0.2193 -0.740548,0.51028 0.0056,0.0223 0.01748,0.0436 0.0236,0.0658 -0.13242,0.0952 -0.256193,0.1845 -0.39207,0.28221 l 1.687433,5.60004 c 0.225359,0.0286 0.697015,-0.007 1.236827,-0.0472 -0.144265,0.24355 -0.165067,0.27925 -0.307933,0.52024 -0.11115,-0.0718 -0.226325,-0.12995 -0.36112,-0.1524 -0.0378,-0.0632 -0.07561,-0.12653 -0.113333,-0.18983 -0.03444,0.0626 -0.08449,0.12124 -0.127085,0.18185 -0.06983,0.001 -0.146155,0.008 -0.227776,0.0179 l 0.348877,1.15781 c 0.495719,1.64512 0.465912,3.05462 -0.08866,4.2284 -0.536919,1.12467 -1.504092,1.89749 -2.901764,2.31865 -1.397671,0.42116 -2.645599,0.31581 -3.744244,-0.31604 -1.068914,-0.64081 -1.851747,-1.7839 -2.347464,-3.42902 l -1.29994,-4.31408 c -0.03308,0.008 -0.156762,0.034 -0.183627,0.0408 0.05244,-0.043 0.104464,-0.0867 0.156796,-0.12982 l -1.574869,-5.22646 c -0.495715,-1.64512 -0.474756,-3.03043 0.06216,-4.15511 0.566661,-1.13366 1.548632,-1.91093 2.9463,-2.33208 z m 8.981284,11.95722 c 0.0029,-0.005 0.0078,-0.01 0.01053,-0.0151 0.0099,-0.0183 -0.05595,-0.0609 -0.04534,-0.043 0.01154,0.0193 0.02324,0.0386 0.03476,0.0581 z m -76.675501,8.65723 c 0.220431,0.0849 0.442343,0.1681 0.63153,0.28141 0.45898,-0.0243 0.925139,0.0112 1.377018,-0.0728 0.19506,-0.0362 0.369742,-0.15683 0.524773,-0.28064 0.125107,-0.1 0.281362,-0.5357 0.298358,-0.3765 0.04128,0.38691 -0.08997,0.77887 -0.215654,1.14711 -0.08787,0.25748 -0.196418,0.50706 -0.302249,0.75763 -0.284579,-0.34014 -0.482161,-0.42304 -1.370162,-0.55647 -0.268346,-0.34025 -0.593544,-0.62952 -0.943617,-0.89979 z m 139.736259,-41.66631 4.05926,-1.22315 c 1.39768,-0.42116 2.63691,-0.29111 3.7179,0.38982 1.09865,0.63185 1.89627,1.77048 2.392,3.4156 l 2.39278,7.94088 c 0.50185,-0.30214 0.69081,-0.41692 1.07894,-0.65541 0.12568,0.0902 0.258,0.16755 0.39546,0.23056 -0.22049,0.17175 -0.35247,0.30993 -0.22157,0.35013 0.1581,0.0486 0.3226,0.10163 0.48883,0.1517 -0.006,0.19827 -0.009,0.39605 0.003,0.59386 0.005,0.0778 -0.004,0.19312 -0.007,0.29848 -0.10789,-0.10632 -0.21797,-0.20876 -0.33136,-0.30441 0.0642,-0.10778 0.10783,-0.18777 0.1838,-0.31066 -0.14043,0.10975 -0.19601,0.15264 -0.29091,0.22745 -0.24291,-0.19062 -0.50229,-0.34883 -0.79991,-0.43361 -9.4e-4,-3.9e-4 -0.37929,0.0411 -0.44017,0.0473 l 0.051,0.16923 c 0.3215,1.06695 0.41826,2.03316 0.29799,2.90185 1.29045,-0.5094 1.05971,-0.39002 2.35982,-1.29613 -0.27757,-0.22298 -0.53243,-0.49001 -0.78861,-0.75437 0.0668,-0.0163 0.13323,-0.0333 0.19827,-0.0549 0.29708,0.2987 0.65408,-0.0151 0.96986,-0.47467 0.0704,-0.0412 0.14096,-0.0814 0.21135,-0.12251 0.14468,0.0536 0.28859,0.10914 0.43361,0.16183 0.0186,0.006 -0.0472,-0.0152 -0.0477,-0.0347 -0.003,-0.11294 0.002,-0.22598 0.004,-0.33895 0.0565,-0.0298 0.1116,-0.064 0.16893,-0.0914 -0.006,-0.23324 -0.009,-0.41992 -0.0135,-0.63063 0.11598,-0.23418 0.21028,-0.49369 0.32134,-0.73368 0.20495,-0.055 0.40742,-0.10224 0.59773,-0.11373 0.002,-0.30897 0.016,-0.61866 0.0195,-0.92771 0.50247,-0.80324 0.53949,-0.86203 1.52564,-2.53491 0.017,-0.0416 0.0338,-0.0774 0.0508,-0.11787 0.29573,0.0675 0.59265,0.12168 0.89571,0.12462 0.18061,0.002 -0.0305,-0.36299 -0.0856,-0.53496 -0.11442,-0.35705 -0.25336,-0.7056 -0.39261,-1.05396 -0.0124,-0.15644 -0.0464,-0.32006 -0.12019,-0.49919 -0.0298,-0.0724 -0.0858,-0.13372 -0.15273,-0.18982 -0.071,-0.18121 -0.14367,-0.36187 -0.21538,-0.54283 -0.002,-0.01 -0.004,-0.0199 -0.006,-0.0296 0.10462,0.0308 0.21801,0.0696 0.31966,0.0803 0.43611,0.78365 0.87745,1.59667 1.05068,1.91244 0.9824,1.86195 1.15518,2.1741 2.02981,3.90092 -1.12599,0.5582 -0.83687,1.11586 -0.33847,1.66719 -0.22981,0.0247 -0.45358,0.081 -0.66565,0.18923 -0.15761,-0.0391 -0.31725,-0.0674 -0.48214,-0.0668 -0.2659,4.5e-4 -0.27012,0.41508 -0.26965,0.73488 -0.0766,0.10249 -0.1532,0.20421 -0.22388,0.32814 -0.33813,0.5929 -0.18341,1.36973 -0.0879,2.04557 0.002,0.017 0.22611,0.84082 0.33717,1.25687 -0.13245,-0.0383 -0.26706,-0.0669 -0.40189,-0.0942 -0.15673,-0.30836 -0.31199,-0.61726 -0.46792,-0.92602 -0.91157,-1.37356 -1.10102,-2.91198 -2.93539,-0.90411 -0.0511,0.0559 -0.073,0.12139 -0.0776,0.19228 -1.68495,-0.86726 -2.1597,-0.41934 -2.19864,0.38024 -0.0711,0.0521 -0.13774,0.10647 -0.19606,0.16432 -0.12867,0.0126 -0.26407,0.033 -0.41203,0.0691 -0.21996,0.0537 -0.1238,0.27443 0.0381,0.52933 -0.1551,0.43855 -0.13798,0.95035 -0.0683,1.47836 -0.0485,0.031 -0.0999,0.0724 -0.15177,0.11427 -0.15886,-0.10402 -0.32537,-0.19511 -0.49565,-0.27648 -0.006,-0.0148 -0.0118,-0.0296 -0.0176,-0.0443 -0.11687,-0.46051 -0.22485,-0.87556 -0.38174,-1.20781 -0.0623,0.20302 -0.13353,0.40191 -0.22354,0.5925 -0.53692,1.12468 -1.50396,1.898 -2.90162,2.31915 l -4.05927,1.22317 z M 50.465186,218.10012 c 0.08777,-0.0227 0.177477,-0.0455 0.270962,-0.0698 -0.01131,0.007 -0.02224,0.0142 -0.03363,0.0209 -0.101559,0.0598 -0.16801,0.0953 -0.26685,0.15328 0.0098,-0.0348 0.01976,-0.0696 0.02949,-0.10444 z M 172.70659,181.34873 c 0.0101,0.11542 0.0338,0.23547 0.0856,0.3628 l 5.1e-4,-1.5e-4 c 0.28112,0.61802 0.55542,1.23899 0.83169,1.85914 -0.0977,0.0621 -0.14432,0.0958 -0.2473,0.16087 -0.33466,0.21138 -0.70168,0.45175 -1.08368,0.69517 -0.0116,-0.0222 -0.0235,-0.0443 -0.0352,-0.0666 0.48642,-0.48196 1.4201,-1.03332 0.96418,-1.36942 -0.53223,-0.39233 -1.11846,-0.64647 -1.7337,-0.81177 -0.0689,0.11032 -0.13036,0.21322 -0.20797,0.33252 -0.0574,-0.10492 -0.11899,-0.20734 -0.17847,-0.31106 0.0423,-0.0325 0.0842,-0.0651 0.12768,-0.0957 -0.0673,-0.0148 -0.13707,-0.0211 -0.20501,-0.0337 -0.0193,-0.0326 -0.0389,-0.0649 -0.0585,-0.0974 0.60769,-0.19108 1.19339,-0.39562 1.74015,-0.62474 z m -1.47666,0.75583 c 0.0879,0.0197 0.17202,0.0509 0.25877,0.0742 0.12573,-0.20139 0.19686,-0.34687 0.0511,-0.26909 -0.10785,0.0576 -0.20992,0.12461 -0.3099,0.19486 z M 72.402038,212.4782 c 0.269878,0.10742 0.540013,0.21429 0.80898,0.32401 -0.159372,0.10922 -0.317624,0.21371 -0.469137,0.32379 -0.108581,-0.2172 -0.22495,-0.43221 -0.339843,-0.6478 z m -14.795556,4.65042 c 0.125256,0.15914 0.256668,0.30932 0.395139,0.44979 -0.08293,0.0221 -0.161019,0.0497 -0.221682,0.0954 -0.602666,0.4557 -1.1496,0.97796 -1.694583,1.50315 -0.681727,-0.0877 -1.1323,-0.14164 -1.434746,-0.1797 0.412232,-0.19623 0.786628,-0.46441 1.179858,-0.69663 0.334232,-0.19732 0.666667,-0.39683 1.001742,-0.59275 0.15524,-0.0907 0.340745,-0.13991 0.470991,-0.2639 0.105681,-0.10056 0.203578,-0.20879 0.303281,-0.31537 z M 166.00151,184.91057 c 0.28704,0.10191 0.61472,0.12656 0.86116,0.30559 0.0122,0.009 0.0242,0.0204 0.0364,0.0295 -0.27066,0.15674 -0.54111,0.31387 -0.81197,0.47028 -0.0112,-0.007 -0.0222,-0.0124 -0.0334,-0.0196 -0.0874,-0.84174 -0.28474,-0.0598 -0.0522,-0.78575 z m 9.19234,-2.72456 c 0.0121,8e-4 0.0245,-4.1e-4 0.0367,-6.1e-4 0.0593,0.0553 0.11884,0.11023 0.17828,0.1654 -0.0356,0.0252 -0.0713,0.0502 -0.10678,0.0754 -0.0359,-0.0803 -0.0721,-0.16034 -0.10809,-0.24053 z m -122.993906,37.2847 c 0.09382,0.4134 0.188625,0.8264 0.470202,1.12341 0.121074,0.1277 0.768651,0.24986 1.434561,0.34921 -0.420078,0.34829 -0.840018,0.69643 -1.26517,1.0386 -0.886735,-0.61102 -2.059623,-0.84897 -3.221206,-0.96424 0.880921,-0.49488 1.667848,-0.95764 2.251475,-1.34228 0.106391,-0.0701 0.221022,-0.13612 0.330145,-0.20473 z m 20.846938,-6.06152 c 0.02953,-0.0242 0.01414,0.0478 -0.01568,0.21306 -0.02701,0.002 -0.04214,0.002 -0.06846,0.004 -0.0083,-0.0221 -0.02012,-0.0433 -0.02885,-0.0652 0.03798,-0.0558 0.09884,-0.14014 0.11297,-0.1517 z m -37.78294,11.49131 c 0.341953,-0.10552 0.638427,-0.16341 0.864244,-0.14276 -0.433322,0.50513 -0.698924,0.80177 -1.093494,1.25727 -0.308488,-0.20192 -0.63281,-0.43385 -0.960762,-0.67011 0.421306,-0.17166 0.83044,-0.33336 1.190012,-0.4444 z m 1.094581,-0.0805 c 0.10138,0.0548 0.167531,0.14867 0.198084,0.28303 -0.07624,0.12734 -0.121019,0.27402 -0.119333,0.44939 8.65e-4,0.0912 0.01697,0.17443 0.04035,0.25392 -0.0097,0.0336 -0.0089,0.0548 -0.02027,0.0902 0.01769,-9.7e-4 0.03577,-0.002 0.05357,-0.003 0.08413,0.20234 0.239189,0.36595 0.445779,0.49606 -0.119708,0.58818 -0.827132,0.31425 -1.714923,-0.24263 0.364441,-0.44824 0.735795,-0.8914 1.116772,-1.32688 z m 87.755287,-25.33275 c -0.0525,0.0876 -0.10229,0.17641 -0.13661,0.27215 -0.004,0.0113 -0.006,0.0233 -0.009,0.0348 -0.35214,0.46057 -0.70685,0.91933 -1.06281,1.37701 -0.0435,0.0204 -0.0869,0.041 -0.13045,0.0615 -0.40693,0.0586 -0.82495,0.12141 -1.23582,0.18134 0.0458,-0.0877 0.089,-0.17669 0.13452,-0.26455 0.35408,-0.45472 0.70628,-0.90665 0.86371,-1.10815 0.0649,-0.0264 0.12742,-0.0577 0.19209,-0.0843 0.47346,-0.095 0.93197,-0.26748 1.38481,-0.46964 z m -64.596515,19.9849 c 0.43733,0.41478 0.991231,0.30589 1.49915,0.10687 -0.338257,0.41775 -0.671925,0.8392 -0.998448,1.2664 -0.13226,0.0271 -0.144745,0.0293 -0.276622,0.0564 -0.160241,-0.4184 -0.339061,-0.71826 -0.531668,-0.91005 0.0024,-0.0524 0.0055,-0.10681 0.0044,-0.15191 0.102227,-0.12165 0.201075,-0.24594 0.303168,-0.36769 z m 36.328012,-10.31943 c 5.79e-4,0.003 0.0015,0.008 0.0021,0.0108 -0.005,-0.002 -0.01029,-0.003 -0.0152,-0.006 0.0045,-0.002 0.0085,-0.003 0.01307,-0.005 z m 82.113183,-24.38501 c -0.0317,0.62851 0.0472,1.28504 0.15735,1.96411 -0.24323,0.21226 -0.42113,0.51626 -0.51184,0.9325 -0.19156,-0.44255 -0.38505,-0.8842 -0.57727,-1.32647 0.3085,-0.52165 0.61796,-1.04265 0.92716,-1.56389 0.001,-0.002 0.003,-0.004 0.005,-0.006 z M 46.373266,225.4713 c 0.01112,-0.003 0.02222,-0.005 0.03343,-0.007 -0.0039,0.0128 -0.0082,0.0254 -0.01217,0.0382 -0.0067,-0.0108 -0.01447,-0.0204 -0.02118,-0.0309 z m -24.889328,8.16636 c 0.107409,-0.0636 -0.127005,0.0977 -0.301974,0.16924 0.100415,-0.0569 0.202657,-0.11047 0.301974,-0.16924 z M 194.57752,181.83249 c -0.29626,0.25634 -0.59207,0.51333 -0.88536,0.77303 -0.59357,0.52562 -1.49854,0.84544 -1.76793,1.59111 -0.0383,0.10614 -0.0553,0.17435 -0.089,0.2724 -0.13784,0.10047 -0.29075,0.21033 -0.35256,0.25573 -0.0144,0.0745 -0.0268,0.20006 -0.0134,0.33704 -0.0898,0.0342 -0.18372,0.0676 -0.24702,0.10088 l 0.5512,1.82924 c 0.38739,-0.0194 0.77671,-0.0765 1.16623,-0.13823 0.18244,0.10381 0.36889,0.19745 0.5716,0.2509 0.19305,0.0505 0.34247,-0.2056 0.50581,-0.32027 0.0785,-0.0551 0.16815,-0.1023 0.25042,-0.15587 0.0476,-0.009 0.0952,-0.0174 0.14282,-0.0258 0.0982,0.12324 0.20289,0.23879 0.33371,0.32474 0.28702,0.1886 0.70199,0.23922 1.10996,0.23386 -0.19502,0.16006 -0.38835,0.32368 -0.59691,0.46213 -0.90399,0.6001 -1.83753,1.15775 -2.7817,1.69796 l 2.58586,8.58163 c 0.0611,-0.0299 0.0996,-0.045 0.1692,-0.078 0.0648,-0.0511 0.0963,-0.0747 0.15433,-0.11829 0.23604,0.0596 0.53461,-4.2e-4 0.78096,0.0394 0.0682,-0.0269 0.13802,-0.0504 0.20736,-0.0749 -0.27471,0.19653 -0.55256,0.38872 -0.82411,0.58943 -0.10036,-0.0527 -0.27212,-0.11832 -0.43376,-0.17852 l 6.19898,20.57236 -1.47645,0.4449 -6.44265,1.94134 c 0.0918,0.2419 0.18547,0.48312 0.27826,0.72464 0.0976,0.27232 0.16547,0.4635 0.24877,0.69305 -0.18381,-0.0883 -0.36848,-0.17478 -0.55281,-0.26196 -0.21637,-0.28136 -0.4755,-0.60514 -0.75549,-0.92032 l -13.77841,4.1518 c -0.0288,0.2156 -0.0615,0.43053 -0.0937,0.64565 -0.12273,-0.17879 -0.25359,-0.34539 -0.39174,-0.4994 l -7.56731,2.28023 c 0.007,0.34314 0.0402,0.6809 0.0894,0.98825 0.003,0.0216 0.005,0.0468 0.008,0.0694 -0.3006,-0.0686 -0.58448,-0.53354 -0.65352,-0.6159 -0.0718,-0.0543 -0.16608,-0.12996 -0.25138,-0.19842 l -4.16267,1.25432 c 0.0291,0.0722 0.12165,0.30677 0.14701,0.37505 -0.1862,0.35036 -0.3577,0.70823 -0.51693,1.06789 -0.12804,0.12382 -0.25522,0.24856 -0.38404,0.37155 -0.16704,0.0988 -0.32242,0.22344 -0.48983,0.32138 0.0906,-0.28338 -0.004,-0.60759 -0.15167,-0.90095 0.0377,-0.0405 0.0729,-0.0852 0.11281,-0.12195 0.45174,-0.89298 0.42993,-0.84567 0.43413,-0.85726 l -9.75329,2.93892 c 0.0223,0.089 0.045,0.17783 0.0674,0.2668 0.10368,0.42011 0.20144,0.84168 0.30367,1.2621 -0.21224,0.0896 -0.41319,0.18373 -0.60616,0.27926 -0.14952,-0.009 -0.30608,-0.0127 -0.48719,5.4e-4 -0.18041,0.0132 -0.26366,0.17859 -0.32662,0.37583 -0.32767,0.13206 -0.64782,0.21796 -0.9803,0.19285 -0.006,-0.0142 -0.0104,-0.0289 -0.0163,-0.0432 -0.1353,-0.32284 -0.15347,-0.78093 -0.34335,-1.05531 0.034,-0.15348 0.048,-0.33823 0.0488,-0.57389 l -7.359,2.21745 c -0.0542,0.46211 -0.1054,0.92463 -0.16635,1.38593 -0.0996,-0.29974 -0.19621,-0.59989 -0.30318,-0.89687 0.13065,-0.15634 0.25573,-0.30703 0.39235,-0.46579 l -7.56286,2.27888 c 0.0391,0.0567 0.0798,0.11234 0.11667,0.17048 0.0411,0.0647 0.0868,0.14624 0.12921,0.21742 -0.005,0.006 -0.0102,0.008 -0.0162,0.0141 -0.0941,0.0942 -0.1629,0.20446 -0.2164,0.32426 -0.12762,-0.009 -0.25434,-0.0361 -0.3814,-0.0621 0.0457,-0.17252 0.0954,-0.38832 0.14334,-0.59653 l -5.26877,1.58789 c -3.3e-4,0.0595 -8.6e-4,0.11899 -0.001,0.17849 0.11325,-0.11246 0.26523,-0.20982 0.44398,-0.29624 -0.14118,0.27757 -0.28888,0.49731 -0.44613,0.63475 -4.1e-4,0.0454 -5.2e-4,0.0909 -0.001,0.13631 -0.0634,0.0728 -0.1297,0.14488 -0.18906,0.21619 -0.0196,-0.0743 -0.0286,-0.14393 -0.0283,-0.21009 -0.0806,0.0235 -0.1643,0.0203 -0.2508,-0.0103 -0.0294,-0.0484 -0.0551,-0.0999 -0.0855,-0.14749 -0.0516,-0.0953 -0.10123,-0.1919 -0.15201,-0.28774 l -23.31003,7.02392 c 0.40854,-0.002 0.81665,-0.0106 1.22402,-0.0342 0.10127,0.0413 0.22677,0.0935 0.35224,0.14271 -0.10855,0.1187 -0.209,0.24014 -0.29538,0.3416 -0.4651,0.6012 -0.93547,1.15996 -1.5043,1.63849 -0.0432,-0.6587 -0.0987,-1.31651 -0.15559,-1.97434 l -28.556781,8.60489 c -0.334527,0.26893 -0.604442,0.49658 -0.993619,0.80243 -0.337296,0.26506 -0.785163,0.44163 -1.150323,0.68178 -0.196437,0.082 -0.461468,0.27827 -0.7155,0.4752 -0.02724,-0.13829 -0.05033,-0.2774 -0.08029,-0.41514 -0.04706,-0.21634 -0.08455,-0.41722 -0.124002,-0.62108 l -4.820735,1.45261 c -0.0045,0.0121 -0.0088,0.0243 -0.01329,0.0364 -0.02833,-0.003 -0.05761,-10e-4 -0.08589,-0.004 -0.187749,0.0456 -0.36729,0.11343 -0.543549,0.18968 -0.0069,-0.002 -0.02893,-0.006 -0.03555,-0.007 -0.0083,-0.002 -0.01115,-0.003 -0.01932,-0.005 l -7.665774,2.30989 c -0.154067,0.16393 -0.133395,0.59225 -0.05901,1.04541 -0.05438,-0.009 -0.109412,-0.0151 -0.163223,-0.0258 -0.51876,0.20397 -0.705546,0.27254 -0.999768,0.38437 0.03935,-0.19312 0.07957,-0.38653 0.127315,-0.57863 0.0464,-0.18643 0.11241,-0.3669 0.175845,-0.54844 l -10.165452,3.06311 c 0.06671,0.12381 0.163511,0.21578 0.296012,0.26054 0.121216,0.0409 0.222292,0.0574 0.328803,0.0814 -0.727499,0.49309 -1.552822,0.97031 -2.444334,0.87956 -0.05342,-0.005 -0.106037,-0.0208 -0.157477,-0.0442 0.149865,-0.23596 0.295482,-0.47545 0.441588,-0.71433 l -9.16845,2.76269 c -0.150763,0.14978 -0.298638,0.30331 -0.443973,0.45922 0.0527,-0.12453 0.105671,-0.24902 0.15897,-0.37334 l -2.778227,0.83715 c -0.0066,0.006 -0.0115,0.008 -0.01805,0.0135 -0.04672,0.0373 -0.08126,0.0817 -0.113885,0.12715 -0.01755,-0.0283 -0.03395,-0.0571 -0.05115,-0.0855 l -5.096331,1.53566 -2.005002,-6.65393 c -0.04001,-0.006 -0.07949,-0.0146 -0.119499,-0.0209 -0.052,-0.03 -0.108115,-0.0558 -0.157298,-0.0887 -0.08929,-0.0107 -0.178261,-0.006 -0.267353,-0.01 -0.04201,-0.014 -0.08517,-0.0241 -0.125965,-0.042 -0.05665,-0.0241 -0.01063,-0.14528 0.04026,-0.17996 0.09558,-0.0653 0.271779,0.0162 0.338561,-0.0783 0.04562,-0.0646 0.07588,-0.13676 0.101463,-0.21138 l -1.726795,-5.73065 c -0.657887,1.36637 -1.483207,2.6273 -0.10323,3.96509 0.03764,0.0365 0.08094,-0.067 0.121445,-0.10027 0.06452,-0.0278 0.200077,-0.15452 0.193084,-0.0846 -0.104893,1.05154 -0.428869,0.77552 -0.543036,1.54368 -0.15488,0.007 -0.310895,0.007 -0.466499,0.008 0.119357,-0.31134 0.228228,-0.62732 0.34692,-0.93893 -0.39458,-1.66212 -0.01863,-1.97383 -2.463976,-1.80068 -0.160728,0.0114 -0.373839,0.0798 -0.608994,0.17488 l 0.605319,2.00884 c 0.107298,-0.0536 0.207587,-0.11637 0.290398,-0.20408 -0.02336,0.0587 -0.0401,0.11997 -0.06695,0.17723 -0.03948,0.0842 -0.09965,0.16305 -0.158589,0.24209 l 0.820757,2.72382 c 0.116617,-0.0374 0.239823,-0.0821 0.373048,-0.134 0.0088,-0.003 0.02053,-0.005 0.02983,-0.008 0.039,0.1252 0.0915,0.24428 0.164466,0.35414 0.340427,0.51262 1.252943,0.45108 1.997064,0.36755 -0.492029,0.55362 -0.938724,1.12834 -0.911756,1.97862 0.0077,0.24223 0.143801,0.44993 0.293571,0.65364 -0.280968,0.14767 -0.563258,0.29295 -0.847704,0.43408 l 2.065235,6.85383 1.129606,-0.34039 c 0.200178,-0.32704 0.386612,-0.66423 0.600589,-0.9819 0.327496,-0.4862 0.533114,-0.7729 0.675454,-0.96454 0.557957,0.4198 1.159825,-0.10972 1.612895,-0.62254 0.175938,0.32998 0.43707,0.86353 0.739351,1.47569 l 1.959365,-0.5904 c -0.0765,-0.13332 -0.159452,-0.27363 -0.211417,-0.38103 -0.167455,-0.34607 -0.637971,-1.38965 -1.119826,-2.12043 0.05653,-0.068 0.11405,-0.13506 0.171011,-0.20265 0.0013,-0.002 0.03654,-0.0455 0.0424,-0.0527 0.124036,0.0416 0.251127,0.0683 0.380825,0.0803 0.09918,0.19434 0.195332,0.38874 0.262898,0.58409 0.06204,0.17942 0.291917,1.25763 0.756082,2.00767 l 2.444261,-0.73652 c 4.73e-4,-0.003 0.0018,-0.0119 0.0024,-0.0153 0.05752,-0.12134 0.124563,-0.23155 0.187619,-0.34637 0.04651,0.008 0.08925,0.02 0.136934,0.026 0.218595,0.0284 0.431886,0.0412 0.641882,0.0435 l 3.19931,-0.96403 c 1.392745,-0.85689 2.592495,-2.14243 3.722954,-3.26881 0.08012,-0.0843 0.05353,-0.0563 0.128682,-0.13538 0.156113,0.0601 0.314529,0.11669 0.46188,0.18955 0.305625,-0.28328 0.579501,-0.59015 0.83906,-0.90696 0.403215,0.28744 0.86868,0.4562 1.668659,0.46167 1.298904,0.009 2.412454,-0.69575 3.44286,-1.38985 0.253384,0.40168 0.642304,0.75566 1.254979,1.04291 0.435983,0.20441 0.943301,0.18871 1.439945,0.10204 l 1.32109,-0.39808 c 0.537451,-0.26549 1.028358,-0.64313 1.544488,-0.95168 0.452707,-0.27064 2.292772,-1.47895 2.974017,-1.92484 0.643781,0.0255 0.771062,0.007 0.953221,0.0863 0.103331,0.35374 0.216043,0.70184 0.363819,1.03187 l 3.761391,-1.1334 c 0.263141,-0.19604 0.518365,-0.40604 0.769034,-0.61277 0.439224,-0.36225 0.837652,-0.76962 1.23317,-1.18063 0.01,3e-4 0.0204,-0.001 0.03044,-0.001 0.342921,-0.003 0.685897,-0.004 1.028839,-0.007 -0.02335,0.0151 -0.04546,0.0324 -0.06889,0.0472 -0.759301,0.51267 -1.507132,1.04289 -2.277622,1.53852 l 11.254486,-3.39128 c 0.49455,-0.46692 0.937636,-1.00436 1.356703,-1.55516 0.02278,0.40789 0.04327,0.67213 0.0762,1.1234 l 3.033555,-0.91409 c 0.190402,-0.55264 0.413311,-1.09419 0.679754,-1.61834 0.193663,-0.38097 0.365164,-0.69039 0.586386,-0.98249 0.08231,0.17764 0.149312,0.33043 0.187501,0.41089 0.241287,0.50837 0.464631,1.02663 0.687315,1.54481 l 1.919781,-0.57848 c -0.0028,-0.006 -5.15e-4,-0.002 -0.0036,-0.008 -0.264055,-0.58379 -0.496141,-1.18155 -0.771125,-1.76027 -0.01994,-0.042 -0.05159,-0.10695 -0.07428,-0.15519 0.07876,0.0893 0.159568,0.17706 0.230937,0.27205 0.168288,0.22402 0.321078,0.45915 0.481702,0.68872 0.200316,0.26203 0.400842,0.52399 0.601157,0.78602 0.01136,0.008 0.02166,0.0187 0.03292,0.0267 l 5.448126,-1.64167 c 0.25314,-0.99013 0.312531,-1.21695 0.662065,-2.52618 0.06905,-0.21678 0.121481,-0.38124 0.179851,-0.56745 0.111485,-0.0128 0.225238,-0.0333 0.339471,-0.0591 0.123142,0.29215 0.250602,0.58192 0.394506,0.86502 0.251482,0.44571 0.409734,0.81656 0.628597,1.08485 -0.560162,0.18159 -1.023436,0.54426 -1.429587,0.96941 L 100.668,253.34 c 0.0591,-0.50782 0.12672,-1.01432 0.20099,-1.51994 0.3049,0.10805 0.72121,0.12612 1.31072,0.026 0.1421,-0.0241 0.2541,-0.10803 0.35677,-0.20951 0.22826,0.019 0.42619,0.036 0.68516,0.0564 0.6752,0.0464 1.63354,0.1498 2.49224,0.12661 l 2.66641,-0.80347 c 0.81645,-0.48642 1.53877,-1.13671 2.17317,-1.8368 0.0899,-0.0992 0.17182,-0.20514 0.25458,-0.3104 0.16639,0.0473 0.33191,0.096 0.49788,0.14408 0.17189,0.33575 0.34715,0.65951 0.53791,0.95944 l 2.89353,-0.8719 c 0.003,-0.0168 0.007,-0.0376 0.01,-0.0541 0.0978,-0.65569 0.13392,-1.31966 0.17256,-1.98148 0.006,-0.11059 0.006,-0.22154 0.0116,-0.33218 0.21947,-0.16206 0.4362,-0.32785 0.65906,-0.48519 0.0884,-0.0624 0.18698,-0.12489 0.277,-0.18763 0.062,0.0793 0.13447,0.14766 0.2258,0.19588 1.15092,0.60783 1.64324,0.27543 2.07496,-0.53456 0.0568,-0.10639 0.10064,-0.21875 0.13857,-0.33373 0.2175,0.3959 0.44454,0.77403 0.58573,0.84951 1.90635,1.01905 2.26007,0.27742 2.59762,-1.1805 0.19128,-0.15231 0.37658,-0.3097 0.55027,-0.47722 0.28411,0.24211 0.61824,0.40617 1.029,0.38076 0.0275,0.30032 0.10744,0.58273 0.31836,0.67856 1.5518,0.70507 2.32059,0.0842 3.44995,-0.72329 0.053,0.16374 0.10652,0.32737 0.15984,0.49102 l 2.94598,-0.8877 c -0.0322,-0.26288 -0.0624,-0.52595 -0.0936,-0.78892 -0.0389,-0.32206 -0.0816,-0.6437 -0.1215,-0.96564 0.0212,-0.0165 0.041,-0.0314 0.0622,-0.0479 0.1486,0.15026 0.29928,0.29869 0.44395,0.45236 0.43321,0.0711 0.86485,0.2354 1.29878,0.26767 0.0862,0.13494 0.17928,0.26425 0.29214,0.37666 0.0324,0.0323 0.0708,0.0706 0.10461,0.10719 l 2.22953,-0.67181 c 0.0706,-0.29616 0.0848,-0.65735 0.15169,-1.11219 0.0432,-0.44729 0.056,-0.89614 0.0599,-1.3452 0.0348,0.0322 0.0739,0.06 0.10328,0.0973 0.95699,1.21878 0.36849,0.83682 1.21355,1.89951 l 3.51152,-1.05812 c 0.0505,-0.22806 0.0877,-0.38183 0.32519,-1.491 0.001,-0.007 0.006,-0.0151 0.008,-0.0222 0.13165,-0.0313 0.26147,-0.0643 0.3863,-0.10075 0.35008,0.35502 0.72514,0.73701 1.14105,1.05349 l 5.90135,-1.77824 c 0.0408,-0.13409 0.0741,-0.27131 0.10243,-0.4094 0.001,-7.5e-4 0.002,-0.003 0.004,-0.004 0.14821,-0.0808 0.35346,0.0243 0.57382,0.20816 l 2.13007,-0.64185 c -0.57662,-0.72213 -1.27534,-1.42874 -2.12216,-1.47946 -0.1124,-0.007 -0.21075,-0.004 -0.30975,-0.002 0.0589,-0.42641 0.11585,-0.85319 0.16673,-1.28079 0.49832,0.63913 1.00573,1.26827 1.54808,1.87589 0.29437,0.1665 0.54847,0.45337 0.88349,0.49964 0.15619,0.0216 0.29696,0.0304 0.42793,0.0302 -0.005,0.0603 -0.009,0.12085 -0.0139,0.18122 l 7.7578,-2.33762 c -0.0414,-0.17867 -0.0863,-0.35653 -0.12831,-0.53506 0.0814,-0.12787 0.1637,-0.25528 0.24574,-0.38277 0.17376,-0.0738 0.34561,-0.15223 0.52033,-0.22371 0.24906,-0.1019 0.50647,-0.18458 0.76173,-0.27163 0.0768,0.12726 0.0514,0.0756 0.17348,0.28559 0.10755,0.18496 0.21047,0.37255 0.31712,0.55804 l 3.27403,-0.98655 c 0.11535,-0.34555 0.0986,-0.37069 -0.1804,-0.7563 -0.01,-0.12413 -0.0252,-0.25082 -0.0378,-0.37613 0.41658,0.13052 0.80921,0.20701 1.20429,0.19409 -0.11518,0.25396 -0.23754,0.50401 -0.38641,0.73981 -0.006,0.01 -0.0165,0.0155 -0.0233,0.0248 l 2.59715,-0.78259 c 0.0898,-0.22631 0.17662,-0.4541 0.27711,-0.67449 0.0663,-0.14545 0.13917,-0.28827 0.20924,-0.43222 0.15516,0.35345 0.37098,0.65815 0.76398,0.72995 l 1.6719,-0.50379 c 0.20297,-0.34998 0.37869,-0.73889 0.48624,-0.99063 0.03,0.0253 0.0663,0.0507 0.0879,0.0766 0.28409,0.34192 0.39862,0.47865 0.51147,0.58691 l 3.53428,-1.06497 c 0.075,-0.18498 0.14671,-0.37142 0.20824,-0.55012 0.0796,-0.23114 0.14718,-0.46649 0.20963,-0.70326 0.13877,-0.26647 0.26403,-0.51129 0.36367,-0.67736 0.0455,-0.0751 0.0917,-0.1498 0.13668,-0.22523 0.22322,0.0863 0.45273,0.1346 0.68815,0.11105 0.61647,-0.0615 0.95148,-0.38168 1.11981,-0.79024 0.0764,0.1711 0.15356,0.34211 0.24191,0.5073 0.17908,0.33471 0.2896,0.76317 0.61528,0.95825 0.13218,0.0793 0.27707,0.12576 0.4264,0.16138 l 3.03009,-0.91304 c 0.007,-0.20105 0.0348,-0.44077 0.13286,-1.65648 0.11655,-0.77884 0.1995,-1.39229 0.30074,-2.00392 0.16914,-0.0901 0.33586,-0.19231 0.50776,-0.26903 0.0277,0.0737 0.0539,0.14781 0.0818,0.22144 0.11925,0.31469 0.0479,0.89881 0.38251,0.93449 0.66603,0.071 1.36838,-0.26805 1.88648,-0.69259 0.0475,-0.0389 0.0595,-0.0884 0.0527,-0.1438 0.10724,8.7e-4 0.21613,-10e-4 0.3281,-0.0109 0.2961,-0.0251 0.5514,-0.19316 0.80641,-0.36336 0.32383,0.43333 0.66212,0.86502 0.82732,0.99746 0.24991,0.20036 0.57657,0.27885 0.86492,0.41833 0.37818,-0.37645 0.87504,-0.66751 1.18789,-1.09087 8e-4,9.6e-4 0.001,0.002 0.003,0.004 0.18882,0.1795 0.43637,0.2847 0.65443,0.42725 0.47317,-0.36712 1.08505,-0.60453 1.41952,-1.1013 0.13104,-0.19469 0.0587,-0.44714 -0.002,-0.69341 0.0442,0.0586 0.0892,0.1165 0.13321,0.17521 0.84005,1.04927 1.34494,1.11783 1.82131,-0.0312 0.30149,0.39091 0.60091,0.78323 0.90045,1.17564 l 3.33982,-1.00637 c -0.004,-0.0171 -0.009,-0.0332 -0.0141,-0.0503 0.12115,-0.0444 0.23935,-0.0963 0.35317,-0.15878 0.01,0.008 0.0195,0.017 0.0288,0.0259 0.5616,-0.24243 1.28093,-0.26806 1.68494,-0.72738 0.23285,-0.26474 -0.0427,-0.70678 -0.12067,-1.05063 -0.0749,-0.33019 -0.18329,-0.65143 -0.29246,-0.97241 0.12744,0.0173 0.22421,0.0233 0.39549,0.0552 0.80961,0.1506 1.56,0.52836 2.33995,0.79261 0.16777,0.0685 0.73809,0.30076 1.08135,0.44163 l 3.06225,-0.92272 c -0.17122,-0.0653 -0.34363,-0.12764 -0.51387,-0.19541 -0.96133,-0.38271 -1.91542,-0.78295 -2.87325,-1.17434 -0.41738,-0.15021 -0.83908,-0.30843 -1.25942,-0.4576 0.10391,-0.22612 0.12871,-0.47226 0.10481,-0.76076 0.44216,0.45739 0.93914,0.96336 1.33458,1.17274 0.20542,0.10881 0.4403,0.14914 0.66052,0.22352 0.23262,-0.53522 0.67944,-1.02925 0.78289,-1.58951 0.0432,0.0122 0.06,0.0172 0.10396,0.0296 0.0689,0.0638 0.14476,0.12403 0.20762,0.19109 0.66734,0.71185 1.35255,1.40652 2.02878,2.10993 0.22731,-0.0245 0.425,0.0132 0.60147,0.0956 l 0.15931,-0.048 -2.08371,-6.91518 c -0.42899,-0.189 -0.85084,-0.35585 -1.33075,-0.54567 -0.80021,-0.31024 -1.84079,-0.71003 -2.63183,-1.03227 -0.22576,-0.092 -0.44508,-0.20183 -0.66789,-0.30177 0.3676,-0.23401 0.74431,-0.48762 1.10639,-0.75598 1.0814,0.30634 2.14088,0.53367 2.8212,0.70965 0.0446,0.0126 0.0891,0.0251 0.13374,0.0376 l -2.84439,-9.43958 c -0.25542,0.0155 -0.29509,0.0263 -0.93509,0.0491 -0.0194,5.6e-4 -0.0393,-0.005 -0.0588,-0.006 0.24586,-0.11893 0.51987,-0.48704 0.75316,-0.84276 l -2.51341,-8.34117 c -0.21824,0.17006 -0.43862,0.34042 -0.65987,0.51295 -0.12421,-0.43701 -0.27947,-0.77243 -0.50331,-1.00224 0.0252,-0.001 0.0609,-0.0506 0.0905,-0.0974 0.27625,-0.0744 0.55165,-0.15163 0.82836,-0.22424 l -0.95897,-3.18248 c -0.1082,-0.0253 -0.21032,-0.0505 -0.33094,-0.0747 -0.0191,-0.004 -0.0381,-0.002 -0.057,-0.005 0.0636,-0.0479 0.22365,-0.15829 0.2992,-0.21429 l -1.60618,-5.33036 c -0.15536,-0.10022 -0.33696,-0.14005 -0.52914,-0.14229 0.0645,-0.0702 0.12521,-0.14851 0.19426,-0.20965 0.0191,-0.0169 0.15091,-0.13174 0.18117,-0.15822 z m -62.42111,58.25364 c 0.0756,-0.022 0.14714,-0.0802 0.21831,-0.14242 0.001,-0.11284 0.001,-0.22566 0.002,-0.33852 -0.13609,0.13521 -0.21944,0.2914 -0.22048,0.48094 z m 59.32625,-55.36137 c 0.019,-0.0983 0.0263,-0.11176 -0.0756,0.0552 0.009,-0.006 0.0624,-0.0454 0.0756,-0.0552 z M 43.31081,228.05913 c 0.0098,-0.002 0.02023,-0.002 0.03005,-0.004 -0.0065,0.005 -0.01636,0.0129 -0.02325,0.0179 -0.0024,-0.005 -0.0042,-0.009 -0.0069,-0.0136 z m 110.66324,-32.84918 c -0.0611,0.28165 -0.0879,0.56465 -0.0395,0.8506 0.0553,0.32662 0.14668,0.59845 0.26235,0.83307 -0.0882,0.0634 -0.19427,0.1401 -0.2847,0.20506 -0.0749,-0.3917 -0.17234,-0.77423 -0.37139,-1.11431 -0.10434,-0.17815 -0.3412,0.23299 -0.50246,0.36188 -0.18029,0.14411 -0.35664,0.29327 -0.53432,0.44058 0.0595,-0.13079 0.10996,-0.2654 0.13717,-0.40994 0.0224,-0.12159 0.037,-0.22809 0.0538,-0.33899 0.42648,-0.27574 0.85505,-0.54779 1.27899,-0.82795 z m 19.03143,-5.09403 c 0.11709,0.22118 0.23383,0.44256 0.35248,0.66289 -0.12645,0.21491 -0.11312,0.19144 -0.20069,0.34058 -0.0681,-0.30957 -0.14302,-0.60518 -0.21775,-0.89994 0.0282,-0.0302 0.0494,-0.0652 0.066,-0.10353 z m -99.113793,30.81655 c 0.05624,0.0225 0.10818,0.0507 0.167724,0.0677 -2.32e-4,0.004 -6.97e-4,0.009 -8.56e-4,0.0133 -0.334296,0.23039 -0.623372,0.43714 -0.673182,0.50994 -0.148316,0.21679 -0.275364,0.42246 -0.389528,0.62201 -0.795536,0.0742 -1.029059,0.0999 -1.778322,0.17208 0.896767,-0.45049 1.774008,-0.94096 2.674177,-1.38491 z m 23.793174,-6.98061 c 0.03441,-0.008 0.06674,-0.0187 0.10241,-0.0254 -0.03215,0.0501 -0.06567,0.0668 -0.10241,0.0254 z m -40.37138,12.18816 c 0.05719,0.0451 0.07145,0.0572 0.13054,0.10373 -0.110645,0.005 -0.217862,0.009 -0.325723,0.0134 0.06679,-0.0403 0.125081,-0.0749 0.195176,-0.11711 z M 96.456528,214.3873 c 2.49e-4,-9e-5 0.0013,-3.5e-4 0.0015,-4.5e-4 -0.02817,0.0484 -0.03141,0.0558 -0.06046,0.10565 -0.03867,-0.0122 -0.07698,-0.0253 -0.11591,-0.0365 0.06217,-0.023 0.09036,-0.0381 0.174794,-0.0683 z m 4.617272,-1.02807 c 0.39504,-0.0335 0.80053,-0.0677 1.20579,-0.0875 0.22457,0.20303 0.63279,0.24175 1.1069,0.27741 -0.26678,0.28224 -0.48911,0.57828 -0.48684,0.94385 0.002,0.29055 0.32749,0.38806 0.66448,0.48036 -0.359,0.1839 -0.71652,0.3691 -1.0743,0.55795 -1.00829,-0.0905 -2.01564,-0.19311 -3.020216,-0.32588 -0.008,-0.001 -0.06108,-0.0102 -0.07123,-0.0116 0.493483,-0.52453 1.077696,-1.1555 1.675276,-1.83412 z m -62.761573,19.19828 c -0.03728,0.035 -0.05733,0.0543 -0.09245,0.0872 -0.02184,-0.003 -0.04421,-0.005 -0.06608,-0.008 0.0531,-0.0257 0.105773,-0.0523 0.15859,-0.0791 z M 174.11772,191.85652 c 0.003,0.009 0.007,0.0174 0.0101,0.0261 0.004,0.0117 -0.0425,0.0211 -0.0354,0.0113 0.008,-0.0126 0.017,-0.0249 0.0254,-0.0374 z M 55.391228,228.23099 c 0.04242,0.004 0.08845,0.007 0.129454,0.0123 0.01197,0.002 0.02991,0.002 0.04244,0.003 0.01284,0.007 0.02565,0.0143 0.03863,0.0208 -0.0441,-0.007 -0.08815,-0.0146 -0.132241,-0.0219 -0.01618,-0.003 -0.06118,-0.0113 -0.07821,-0.0143 z m 43.535066,-12.48948 c 0.911731,0.0367 1.883786,0.0945 2.861216,0.15467 -0.57135,0.2991 -1.12113,0.57976 -1.61337,0.80188 -0.253379,-0.0923 -0.506841,-0.18451 -0.761389,-0.27363 -0.006,-0.0244 -0.0081,-0.046 -0.01492,-0.0711 -0.07002,-0.25825 -0.251463,-0.4471 -0.471515,-0.6119 z m -56.273406,17.31663 c -0.004,0.0104 -0.0078,0.0208 -0.01172,0.031 -0.04824,0.0159 -0.07121,0.0231 -0.110434,0.0365 0.04073,-0.0227 0.08178,-0.0446 0.12212,-0.0676 z M 157.28118,199.09947 c 0.36014,-0.0964 0.71143,-0.19315 0.9968,-0.26528 -0.41631,0.13149 -0.81963,0.28571 -1.18692,0.50661 0.003,-0.0118 0.007,-0.0214 0.009,-0.0336 0.0573,-0.0687 0.12154,-0.13902 0.18081,-0.20776 z m -102.5694,31.04284 c 0.06102,0.0102 0.158948,0.0291 0.216152,0.0385 -0.06988,0.002 -0.139601,0.005 -0.209455,0.007 -0.0023,-0.015 -0.0043,-0.0306 -0.0067,-0.0454 z m 75.57028,-22.45934 c 0.1189,-0.0252 0.24947,-0.0522 0.34307,-0.0705 0.0506,0.0448 0.0899,0.076 0.14493,0.12633 -0.15478,0.31009 -0.41858,0.5936 -0.57157,0.90085 -0.13639,-0.26666 -0.24774,-0.49322 -0.35402,-0.73421 0.0205,-0.0184 0.0264,-0.0237 0.0471,-0.0423 0.1307,-0.0602 0.25707,-0.11874 0.39042,-0.18025 z m 0.53721,-0.10143 c 0.008,-10e-4 0.0206,-0.002 0.0288,-0.002 -0.0144,0.0308 -0.0223,0.0486 -0.0373,0.0803 7.7e-4,-0.007 0.008,-0.0682 0.008,-0.0776 z m -53.500749,16.19942 c 0.09155,-0.007 0.191324,-0.0165 0.281569,-0.0239 -0.204157,0.2142 -0.39296,0.40283 -1.211268,1.24257 -0.07119,0.0629 -0.103413,0.0799 -0.166693,0.13281 0.1669,-0.23879 0.346483,-0.49801 0.480665,-0.69211 0.07345,-0.0844 0.352673,-0.35909 0.615736,-0.65942 z m -28.197461,9.35317 c 0.787711,-0.12317 1.573492,-0.28705 2.359567,-0.45518 -0.03401,0.16344 -0.06834,0.34071 -0.105074,0.49312 -0.0487,-0.0104 -0.09515,-0.0296 -0.145515,-0.0333 -0.166021,-0.0122 -0.891469,0.0808 -1.726066,0.19681 -0.111345,-0.084 -0.239682,-0.15086 -0.38291,-0.20142 z m 46.413261,-13.23317 c 0.05834,0.0719 0.145638,0.17816 0.208051,0.2552 -0.157385,0.0636 -0.316232,0.12967 -0.473504,0.19288 0.08609,-0.14508 0.180583,-0.30451 0.265453,-0.44808 z m 30.451089,-8.55503 c 0.014,-0.002 0.0282,-0.004 0.0422,-0.007 -0.0444,0.0248 -0.0876,0.0504 -0.13167,0.0753 0.0292,-0.0231 0.0596,-0.0444 0.0895,-0.0685 z m 30.40838,-8.96367 c -0.14046,0.17622 -0.28318,0.34902 -0.43998,0.50119 -0.38205,0.37082 -0.57277,0.54812 -0.78673,0.74925 -0.39996,-0.12342 -0.74587,-0.29558 -0.64658,-0.44958 0.10329,-0.16013 0.41748,-0.0689 0.52499,-0.2262 0.0268,-0.0391 0.0435,-0.0835 0.0654,-0.12496 0.57669,-0.20257 0.86383,-0.3022 1.28288,-0.4497 z m -3.32289,1.188 c 0.0391,0.4544 0.13661,0.903 0.35864,1.28872 0.0581,0.10086 0.13951,0.18166 0.23067,0.25325 -0.20638,0.17643 -0.40958,0.35541 -0.61643,0.5317 -0.27826,-0.042 -0.55248,-0.10596 -0.81459,-0.18433 0.1374,-0.5538 0.22723,-1.12242 0.34173,-1.68327 0.16748,-0.0638 0.33397,-0.13176 0.49987,-0.20568 z m -75.964662,23.88375 c -0.110882,0.34257 -0.1693,0.68947 -0.153896,1.04754 -0.298776,0.0358 -0.593622,0.0699 -0.813815,0.0952 0.302171,-0.40945 0.712226,-0.83283 0.967714,-1.14272 z M 53.001506,234.984 c 0.02497,0.0601 0.0569,0.13795 0.08613,0.20883 -0.05668,-0.0346 -0.114704,-0.0689 -0.167767,-0.0946 0.008,-0.0282 0.01461,-0.0543 0.02231,-0.0818 0.01973,-0.0109 0.03957,-0.0215 0.05932,-0.0325 z m 46.654153,-12.75253 c 0.180701,-0.0429 0.373821,-0.0905 0.547221,-0.13089 0.24475,0.16347 0.0914,0.0604 0.56582,0.37677 0.25215,0.22764 0.50754,0.45167 0.76159,0.67724 -0.19779,0.11605 -0.39472,0.23443 -0.5916,0.3526 -0.009,-0.002 -0.0175,-0.005 -0.0265,-0.007 -0.21488,-0.0598 -0.42971,-0.11953 -0.64427,-0.18045 -0.19715,-0.36667 -0.398008,-0.73122 -0.612324,-1.08814 z m -15.795001,4.97856 c -0.05883,0.2581 -0.118733,0.51898 -0.179384,0.78917 -0.05226,-2.7e-4 -0.106576,0.001 -0.159441,0.001 0.114445,-0.26467 0.226827,-0.52969 0.338836,-0.79024 z m -31.615608,9.77542 c 0.02645,-0.007 0.05301,-0.014 0.07994,-0.0214 0.04947,0.0233 0.09173,0.0409 0.148675,0.0707 -0.161132,0.0567 -0.09308,0.0333 -0.266276,0.0943 -0.0033,-0.012 -0.0064,-0.024 -0.0097,-0.0359 0.01542,-0.0368 0.03212,-0.0703 0.04743,-0.10766 z m 1.375335,-0.40254 c -0.01072,0.0137 -0.01931,0.0283 -0.02935,0.0423 -0.07936,0.0278 -0.154435,0.0644 -0.231525,0.0968 -0.203863,0.0717 -0.202439,0.072 -0.433608,0.15331 -0.0096,-0.0248 -0.02001,-0.0488 -0.02958,-0.0731 0.193888,-0.0579 0.488639,-0.14703 0.724068,-0.21928 z m 60.165295,-18.09752 c 3.4e-4,1.7e-4 9.1e-4,5.1e-4 8.9e-4,6e-4 0.0384,0.0183 0.0801,0.15 0.0598,0.11258 -0.0204,-0.0378 -0.0408,-0.0755 -0.0611,-0.11329 z m -91.050683,27.62213 c -0.232017,0.23366 -0.487669,0.44931 -0.742933,0.66535 -0.04372,-0.0224 -0.08825,-0.0431 -0.131995,-0.0654 l 1.257152,4.17207 c 0.09242,-0.0745 0.183127,-0.155 0.276721,-0.21723 0.269879,-0.1795 0.525447,-0.37987 0.782391,-0.5774 0.635792,-0.48877 0.976437,-0.67695 0.93859,-1.15877 0.01847,-0.0103 0.04108,-0.0212 0.05189,-0.0302 0.163554,0.026 0.328293,0.039 0.495536,0.0218 0.402402,-0.0414 0.735278,-0.27962 1.055199,-0.55328 l -0.817178,-2.71194 c -1.05778,0.13387 -2.11512,0.27042 -3.165379,0.45511 z M 195.77836,194.07839 c -0.0343,0.0458 -0.0729,0.0866 -0.10844,0.13091 -0.002,-0.0139 -0.007,-0.0275 -0.009,-0.0416 -0.006,-0.0486 0.0782,-0.0596 0.11715,-0.0893 z M 22.168958,246.68826 c 0.02779,0.0366 0.05236,0.0756 0.07977,0.11255 -0.02871,-0.0109 -0.06276,-0.0168 -0.08798,-0.031 -0.02378,-0.0138 -0.0082,-0.10374 0.0083,-0.0819 z M 195.14578,194.72129 c 0.013,0.0113 0.0251,0.0228 0.0387,0.0337 -0.0767,0.0786 -0.15226,0.15938 -0.23037,0.23672 0.0613,-0.0842 0.14616,-0.20786 0.19163,-0.27038 z m -68.44577,20.8285 c 0.0496,-0.0128 0.0998,-0.0234 0.14934,-0.0364 0.8494,-0.22206 1.69362,-0.46405 2.5362,-0.71079 -0.27251,0.96943 -0.48066,1.94995 -0.40887,2.57998 -0.86895,0.27201 -1.73893,0.54107 -2.60874,0.81038 0.1796,-0.35187 0.46706,-0.89949 0.46796,-0.92414 0.0274,-0.7509 -0.018,-1.31433 -0.13588,-1.71906 z m -3.17998,1.0586 c 0.0775,0.0465 0.15062,0.10825 0.22541,0.16416 -0.0764,-0.0272 -0.15311,-0.0559 -0.22863,-0.0817 -0.10853,-0.0369 -0.29571,0.26856 -0.3073,0.18921 0.0965,-0.0841 0.1905,-0.17103 0.28524,-0.25704 0.007,-0.005 0.0184,-0.009 0.0253,-0.0146 z m 39.14972,-11.58905 c -0.0163,0.22602 -0.0192,0.28199 -0.0327,0.48804 -0.0241,-0.1392 -0.0484,-0.2514 -0.0716,-0.3951 0.0348,-0.031 0.0695,-0.0621 0.10424,-0.0929 z m -8.92527,2.76013 c 0.27656,0.0919 0.55781,0.14984 0.85032,0.13346 0.13769,-0.008 0.27268,-0.0283 0.40502,-0.0584 -0.006,0.0259 -0.003,0.0403 -0.009,0.0645 -0.45025,0.35811 -0.86968,0.70129 -1.24994,1.02106 -0.0974,-0.28792 -0.17175,-0.60454 -0.26387,-0.899 0.007,-0.0133 0.013,-0.0204 0.0198,-0.0329 0.0821,-0.0766 0.16502,-0.15241 0.24731,-0.22888 z m 12.30347,-3.47798 c 0.34915,-0.0387 0.69824,-0.0761 1.04812,-0.10749 0.0187,0.063 0.0352,0.12571 0.0671,0.19241 -0.10082,0.0334 -0.21492,0.0659 -0.2781,0.1016 -0.2147,0.12122 -0.42332,0.252 -0.63112,0.38446 -0.0628,-0.175 -0.16246,-0.44563 -0.20605,-0.57099 z m -39.75831,12.39579 c 0.0562,-0.0386 0.248,0.10136 0.17975,0.0986 -0.0795,-0.003 -0.16222,-0.0261 -0.24413,-0.0435 0.0215,-0.0184 0.0416,-0.0394 0.0644,-0.055 z m -2.21257,1.18484 c 0.0232,0.095 0.0377,0.1895 0.0576,0.28433 -0.006,0.0115 -0.009,0.0251 -0.0147,0.0364 -0.14591,0.27807 -0.29225,0.55588 -0.43852,0.83376 -0.0332,0.0103 -0.0663,0.0211 -0.0995,0.0317 -0.0662,-0.14672 -0.14552,-0.29049 -0.24517,-0.4178 0.0396,0.004 0.0685,0.005 0.0527,-0.0186 -0.0218,-0.0324 -0.0484,-0.0612 -0.0707,-0.0932 0.25719,-0.23569 0.51127,-0.46075 0.75854,-0.65655 z m 72.35978,-21.5432 c 0.0122,0.0183 0.0325,0.0438 0.046,0.0633 -0.0198,-0.0166 -0.0396,-0.0333 -0.0594,-0.0501 0.006,-0.006 0.007,-0.008 0.0134,-0.0132 z M 25.344386,248.38898 c 0.03254,-0.005 0.01717,0.1334 -0.08134,0.51996 -0.01703,-0.12167 -0.01893,-0.24921 -0.02075,-0.37694 0.04505,-0.0806 0.08303,-0.14012 0.102085,-0.14302 z m 53.153393,-15.94255 c 0.0053,0.0183 0.01358,0.0344 0.01907,0.0526 -0.02151,0.005 -0.0428,0.01 -0.06418,0.0145 0.01484,-0.0225 0.03014,-0.0446 0.04511,-0.0671 z m -20.282125,6.3042 c 0.03135,0.0344 0.06271,0.0684 0.09412,0.10277 -0.171771,0.0526 -0.347295,0.0988 -0.520923,0.14835 0.111671,-0.0652 0.286649,-0.17047 0.426807,-0.25113 z m -31.467688,9.71465 c -0.08027,0.70731 -0.16355,1.44376 -0.203511,2.17431 -1.02098,0.0891 -2.251661,0.36648 -3.307363,0.63768 l 0.586533,1.94651 c 0.390244,-0.0991 0.781187,-0.19612 1.166414,-0.31316 0.402349,-0.12207 0.816962,-0.23434 1.205615,-0.3962 -0.671435,0.84243 -1.27713,1.89314 -1.205145,2.69578 0.0265,0.29556 0.297081,0.46316 0.589325,0.61958 -0.237377,0.2781 -0.477117,0.55431 -0.721952,0.82635 l 0.684337,2.27109 c 0.18725,-0.22266 0.03307,-0.0492 0.561478,-0.66573 0.420683,-0.49082 0.884175,-0.94578 1.275793,-1.46008 0.282728,-0.37131 0.503352,-0.70946 0.577388,-1.05534 0.01112,0.01 0.0203,0.0225 0.03141,0.0326 0.580331,0.52781 0.82412,0.54681 1.079405,0.38502 z M 136.45843,215.97013 c 0.0946,0.0769 0.19139,0.15264 0.29013,0.2267 -0.10639,0.13745 -0.20977,0.27755 -0.31519,0.41556 -0.11752,0.15378 -0.17379,0.23559 -0.26719,0.36169 -0.01,-0.12408 -0.0254,-0.24774 -0.0338,-0.37192 0.10895,-0.21087 0.21949,-0.41839 0.32606,-0.63203 z m 3.05919,-0.2272 c -0.32432,0.25356 -0.62232,0.54071 -0.92945,0.81655 -0.0686,-0.10159 -0.14144,-0.20119 -0.22385,-0.29686 0.38515,-0.17173 0.7714,-0.34098 1.1533,-0.51969 z m 17.36949,-5.14105 c -0.006,0.0139 -0.0164,0.0258 -0.0219,0.04 8.5e-4,-0.007 0.001,-0.0146 0.003,-0.0218 0.005,-0.005 0.0142,-0.0135 0.0193,-0.0183 z m -96.783296,29.36571 c -0.116258,1.02989 -0.485586,2.50299 -0.674991,2.15716 -0.16374,-0.29903 0.187384,-0.71749 0.03514,-1.02255 -0.125304,-0.25106 -0.330819,-0.44397 -0.548006,-0.62933 0.395983,-0.16843 0.791685,-0.3373 1.187861,-0.50528 z m 18.637055,-5.48035 c 0.410903,-0.092 0.796495,-0.1792 1.189829,-0.26948 -3.47e-4,0.0133 -0.0032,0.0296 -0.0033,0.0426 -0.392119,0.14603 -0.784288,0.29181 -1.176113,0.43859 -0.0023,-0.071 -0.002,-0.14219 -0.01035,-0.21169 z m 88.700741,-26.50817 c 0.008,0.008 0.0176,0.0161 0.0257,0.0246 -0.005,8.1e-4 -0.0106,0.002 -0.0155,0.003 -0.004,-0.009 -0.007,-0.0181 -0.0104,-0.0271 z m -121.270867,37.248 c 0.129602,-0.0374 0.272199,-0.0785 0.391236,-0.11302 -0.006,0.13158 -0.0095,0.20105 -0.01669,0.36016 -0.146809,0.003 -0.294169,0.008 -0.437918,0.0262 0.02255,-0.0906 0.04226,-0.1822 0.06337,-0.2733 z m 3.684244,-0.83058 c 0.05164,0.0303 0.12269,0.0717 0.172323,0.10082 -0.06788,0.0278 -0.130976,0.0518 -0.198485,0.0792 0.01029,-0.0683 0.01672,-0.11652 0.02616,-0.18005 z M 154.71896,212.85114 c 6e-5,8.1e-4 1.9e-4,0.001 1.3e-4,0.002 0.0218,0.56262 0.0289,1.16677 0.14157,1.71464 -0.0293,0.008 -0.0582,0.0187 -0.0874,0.0269 -0.67351,0.11051 -1.34491,0.26951 -2.01613,0.43426 0.019,-0.0226 0.0345,-0.0515 0.0541,-0.073 0.33495,-0.36746 1.1176,-1.24109 1.90778,-2.10496 z m -23.66923,7.30594 c 0.2902,0.30413 0.5536,0.67666 0.92855,0.76563 -0.0391,0.0991 -0.0581,0.20362 -0.0239,0.32186 0.18284,0.6334 0.79298,0.96873 1.43672,1.28067 -0.0146,0.0228 -0.0256,0.0479 -0.0395,0.0713 -0.55241,0.56654 -1.02263,1.12912 -1.36097,1.66818 -0.48078,-1.22521 -0.94765,-2.45839 -1.71167,-3.54721 -0.062,-0.0639 -0.11629,-0.13934 -0.17424,-0.20926 0.31723,-0.11229 0.62862,-0.23489 0.94503,-0.35115 z m -31.385203,9.97585 c 0.0636,0.0152 0.126414,0.0287 0.188914,0.0413 0.602739,0.70765 1.182169,1.42019 1.845969,2.01011 -0.24258,0.15333 -0.48401,0.30852 -0.73682,0.44384 -1.296675,0.69409 -0.95689,0.84686 -1.549649,0.37575 -0.220226,-0.10849 -0.415439,-0.33227 -0.660831,-0.32494 -0.160851,0.005 -0.295627,0.0176 -0.443805,0.0263 0.464864,-0.85134 0.926545,-1.70361 1.356213,-2.57237 z m -15.29319,4.78472 c 0.02192,0.003 0.0427,0.008 0.06467,0.0111 -0.07349,0.091 -0.140456,0.18608 -0.203929,0.28327 0.04624,-0.0981 0.09301,-0.19586 0.13917,-0.29398 z m 31.015403,-9.33495 c 0.0534,-0.026 0.14673,0.10354 0.13865,0.17358 -0.0165,0.14362 -0.25097,0.23565 -0.21594,0.37594 0.0252,0.10106 0.0893,0.18284 0.16297,0.25961 -0.11746,0.0819 -0.23601,0.16212 -0.34959,0.24944 -0.0737,0.0567 -0.1749,0.13264 -0.27174,0.20332 0.006,-0.0357 0.0109,-0.0724 0.0181,-0.10777 0.0433,-0.0613 0.0965,-0.12062 0.13463,-0.18196 0.0461,-0.0742 0.0181,-0.13373 -0.0401,-0.18657 0.0888,-0.28584 0.21472,-0.55277 0.4077,-0.78021 0.005,-0.002 0.0111,-0.004 0.0158,-0.006 z m -30.462302,9.42951 c -9.44e-4,0.0916 -0.0022,0.46656 -0.002,0.53438 -0.135947,-0.034 -0.27184,-0.0691 -0.407981,-0.10918 0.129266,-0.12555 0.267497,-0.27404 0.409963,-0.42524 z m 4.093499,-1.22593 c 0.0874,-0.0266 0.179157,-0.0462 0.26804,-0.0705 0.134988,0.39361 0.272777,0.81539 0.63397,0.86627 0.127596,0.018 0.234825,0.0223 0.347501,0.0302 0.0022,0.1017 0.0045,0.20336 0.0067,0.30509 0.0031,0.12716 0.02677,0.23817 0.05872,0.34175 -0.225238,0.0659 -0.452882,0.12171 -0.685788,0.15645 -0.546744,0.0815 -1.236386,0.0226 -1.614209,-0.38056 -0.202347,-0.2162 -0.08344,-0.54516 0.01261,-0.86626 0.311673,-0.14737 0.633319,-0.27868 0.972402,-0.38206 z M 199.53382,200.64149 c -0.0244,0.0392 -0.0555,0.0736 -0.0785,0.11379 -0.41227,0.63035 -1.29667,1.77188 -1.40959,2.71044 -0.19631,-0.065 -0.41737,-0.092 -0.55308,-0.24136 -0.24969,-0.27568 -0.24625,-0.82638 -0.20774,-1.42378 0.13145,-0.0734 0.2554,-0.13961 0.38983,-0.21084 0.45183,-0.23944 0.90703,-0.47348 1.3604,-0.71001 0.16624,-0.0795 0.33286,-0.15795 0.4987,-0.23824 z M 51.061202,246.24478 c -0.09668,0.36123 -0.156375,0.73827 -0.12212,1.09032 -0.300111,-0.22575 -0.600048,-0.45151 -0.90384,-0.67107 0.336381,-0.13396 0.676722,-0.27318 1.02596,-0.41925 z m 89.348078,-26.6973 c 0.0289,0.0376 0.0575,0.0736 0.0862,0.10676 -0.23281,0.0973 -0.45027,0.19671 -0.67913,0.30395 0.16448,-0.12639 0.33023,-0.25098 0.49535,-0.37649 0.0323,-0.007 0.065,-0.0234 0.0976,-0.0343 z M 92.2471,234.17334 c 0.03681,0.0933 0.07597,0.19378 0.116294,0.29634 -0.03322,0.0134 -0.06643,0.0267 -0.09959,0.0403 -0.0017,-0.063 -0.0035,-0.126 -0.0051,-0.18898 -0.0036,-0.0492 -0.0079,-0.0984 -0.01157,-0.14763 z m -34.41207,11.62678 c 0.08927,0.0138 0.179327,0.0222 0.269839,0.025 -0.130975,0.0317 -0.261437,0.065 -0.392691,0.0957 0.04075,-0.0407 0.08198,-0.0803 0.122851,-0.12068 z m 67.87159,-19.65324 c 0.007,0.0382 0.0139,0.0764 0.021,0.11456 -0.0181,-0.0169 -0.0357,-0.0343 -0.0538,-0.0513 0.0102,-0.0214 0.0226,-0.0419 0.0328,-0.0633 z m 10.32388,-3.03529 c 0.22425,-0.009 0.44848,-0.0186 0.67273,-0.0278 0.25904,0.0427 0.52545,0.0214 0.79958,-0.0332 0.0538,-0.002 0.1077,-0.004 0.16156,-0.007 -8.2e-4,0.0122 0.004,0.0304 0.004,0.0446 -0.21924,-0.0641 -0.5032,0.1125 -0.78414,0.28323 -0.31236,-0.0235 -0.6246,-0.0568 -0.93559,-0.0797 0.0271,-0.0603 0.0539,-0.12154 0.0816,-0.18057 z m -16.85014,5.09143 c -0.0134,0.0177 -0.0317,0.0427 -0.0374,0.0479 -4.6e-4,-6.8e-4 -6.3e-4,-0.001 -0.001,-0.002 0.005,-0.01 0.0141,-0.0205 0.0385,-0.0461 z m 0.26498,-0.0107 c 0.0723,0.0972 0.14303,0.19539 0.21415,0.29331 -0.003,0.0723 -0.008,0.14465 -0.009,0.21701 -0.0857,-0.016 -0.22915,-0.0997 -0.28684,-0.1602 -0.0246,-0.0258 -0.0659,-0.0897 -0.0951,-0.1257 0.059,-0.0748 0.1177,-0.14978 0.17687,-0.2244 z m -20.959539,6.46516 c 0.03107,0.0155 0.06285,0.0276 0.0937,0.0441 -0.03348,0.004 -0.06691,0.01 -0.100489,0.0141 0.0015,-0.0194 0.0061,-0.0388 0.0065,-0.0583 z m -45.644103,14.10566 c 0.0818,0.006 0.163658,0.0169 0.245479,0.0194 -0.0022,0.0338 -0.02089,0.053 -0.08089,0.0379 -0.05703,-0.0144 -0.110512,-0.0366 -0.164592,-0.0573 z m -26.04788,11.28364 c -0.0059,0.0168 -0.01078,0.034 -0.01648,0.0509 -0.254594,0.0938 -0.506897,0.25288 0.01648,-0.0509 z m 1.89107,2.55026 c 0.02968,-0.006 0.05575,-0.005 0.07241,0.006 0.0011,0.0268 5.45e-4,0.0574 0.002,0.0836 -0.07533,10e-4 -0.150715,0.009 -0.226091,0.005 -0.06066,-0.003 0.05983,-0.0774 0.151691,-0.0948 z m 2.948707,2.82364 c -0.03679,0.50726 -0.287194,1.03894 -0.430347,1.36778 -0.07993,-0.13554 -0.15429,-0.26542 -0.26667,-0.43183 -0.126769,-0.18778 -0.381473,-0.24405 -0.572335,-0.36618 0.04529,0.0113 0.575825,0.15234 0.619911,0.12459 0.242701,-0.15261 0.407122,-0.40487 0.59182,-0.62413 0.01474,-0.0175 0.04065,-0.0502 0.05763,-0.0703 z m -1.723793,1.33818 c -0.04279,0.0177 -0.07967,0.0469 -0.119898,0.0696 0.103178,-0.0609 0.189452,-0.0983 0.119898,-0.0696 z m 3.022164,2.41722 c -0.03856,0.0671 -0.09287,0.15049 -0.126155,0.2118 -0.0511,0.0363 -0.100798,0.0742 -0.151822,0.11051 0.09566,-0.10492 0.187696,-0.21292 0.277979,-0.32231 z m 34.514755,-10.13789 c 0.356405,0.12951 0.80396,0.27481 1.306152,0.42463 -0.307522,-0.003 -0.606503,-0.002 -0.926932,-8e-4 -0.109593,-0.14749 -0.242737,-0.28585 -0.37922,-0.42383 z m 37.791849,-11.12321 c 0.0574,0.19518 0.11166,0.39128 0.17015,0.58614 0.097,0.32285 0.22249,0.82628 0.40888,1.32107 -0.63522,0.0327 -1.29766,-0.0288 -1.87628,-0.0796 0.46988,-0.65228 0.86174,-1.20775 1.29727,-1.82762 z m -30.74252,9.33423 c 0.01085,0.0364 0.02719,0.0737 0.03412,0.10951 0.09191,0.47621 0.18396,0.95239 0.276096,1.42856 -0.234686,-0.0583 -0.469706,-0.11763 -0.711474,-0.1714 -0.0544,-0.0548 -0.108615,-0.10946 -0.160228,-0.16814 0.0061,-0.0127 0.01199,-0.0256 0.01816,-0.0384 0.107985,-0.22977 0.323338,-0.69697 0.543501,-1.16063 z m 51.35959,-15.45114 c 0.11474,0.37254 0.22341,0.74697 0.34036,1.11881 -0.057,0.0413 -0.11148,0.0831 -0.16874,0.12425 -0.29879,0.215 -0.68726,0.34091 -0.98933,0.548 -0.028,-0.48443 -0.0881,-0.9439 -0.26507,-1.35794 0.3272,-0.13058 0.77571,-0.3096 1.08277,-0.43312 z m -36.789169,11.30735 c 0.517535,-0.15539 1.041544,-0.29206 1.56418,-0.42599 0.320659,-0.0822 0.64116,-0.15017 0.961607,-0.22445 0.01079,0.13106 0.02248,0.26135 0.03354,0.39252 0.02636,0.31083 -0.10192,0.70087 -0.0097,0.97981 -0.382112,-0.0351 -0.780373,-0.0281 -1.152408,-0.0899 -0.202002,0.49214 -0.360488,0.99686 -0.503674,1.50593 -0.474281,-0.65926 -1.035949,-1.46545 -1.59826,-1.90989 0.233371,-0.0806 0.467923,-0.15689 0.704712,-0.22799 z M 157.2924,232.63457 c 0.0199,0.0634 0.0391,0.11695 0.0577,0.16989 -0.005,0.006 -0.008,0.0121 -0.0125,0.0182 -0.0154,-0.0627 -0.03,-0.12553 -0.0453,-0.18817 z m -34.99156,10.58489 c -0.014,0.0813 -0.0267,0.16279 -0.0425,0.24382 -0.0155,-0.0597 -0.0335,-0.12691 -0.0557,-0.2045 0.0386,-0.0154 0.0601,-0.0241 0.0982,-0.0394 z m -63.372237,19.46433 c 0.04821,0.108 0.09013,0.22051 0.139091,0.32725 0.02567,0.0561 0.0404,0.12271 0.05665,0.18802 -0.198586,0.122 -0.244001,0.15876 -0.511809,0.31829 -0.08847,0.0526 -0.27319,0.18894 -0.505437,0.3466 0.262167,-0.28649 0.614083,-0.51594 0.767726,-0.87144 0.02023,-0.0467 0.0086,-0.0921 -0.01333,-0.13738 0.03117,-0.0537 0.05377,-0.11084 0.06711,-0.17134 z m 24.051349,-7.14475 c 0.05863,0.021 0.119847,0.0438 0.174395,0.063 -0.05561,0.10425 -0.114449,0.20571 -0.16652,0.31249 -0.0023,-0.12093 -0.0052,-0.23559 -0.0079,-0.37542 z m -17.893184,5.42352 c 0.0019,10e-4 0.0031,0.007 0.0051,0.008 0.3769,0.24197 0.785326,0.49238 1.230707,0.53966 0.02373,0.002 0.04751,0.002 0.07134,0.004 0.108728,0.0235 0.217361,0.048 0.32477,0.0532 -0.351454,0.26458 -0.718576,0.48359 -1.112233,0.62551 -0.09036,0.0326 -0.165484,0.049 -0.234348,0.0587 -0.0075,-0.0314 -0.01568,-0.0626 -0.02343,-0.0939 -0.08221,-0.39956 -0.174709,-0.79684 -0.261956,-1.19532 z m 78.460522,-23.14512 c 0.13994,0.44151 0.29057,0.87866 0.4528,1.31107 -0.45488,0.42946 -0.94069,0.81237 -1.42762,0.78963 -0.0564,-0.003 -0.39525,-0.33862 -0.73815,-0.69077 0.01,-0.006 0.0183,-0.0129 0.0277,-0.0192 0.29911,0.0211 0.74046,-0.16109 1.47972,-0.52898 0.051,-0.0254 0.13353,-0.44562 0.2057,-0.86177 z m -24.14495,7.34998 c -0.0151,0.0611 -0.0297,0.12214 -0.0451,0.18313 -0.0199,-0.0452 -0.0996,-0.10828 -0.0587,-0.13561 0.031,-0.0207 0.0694,-0.0314 0.10392,-0.0475 z m 68.32811,-20.5383 c 0.16597,0.27504 0.15231,0.28396 -0.0639,0.0209 0.0213,-0.006 0.0427,-0.016 0.0639,-0.0209 z m -81.56221,24.72146 c 0.008,0.14591 0.014,0.29192 0.0208,0.43793 -0.0507,0.007 -0.10593,0.009 -0.15868,0.0144 -0.0414,-0.24525 0.0188,-0.38138 0.13788,-0.45228 z m -31.211875,9.43517 c 0.07976,-0.0138 0.131599,0.0171 0.163634,0.0791 -0.07314,-0.0192 -0.149005,-0.0371 -0.22354,-0.0567 0.0195,-0.007 0.04308,-0.02 0.06002,-0.023 z m 75.518455,-22.54361 c 0.0242,-0.004 0.0479,-0.005 0.0719,-0.009 0.007,0.004 0.009,0.003 0.0151,0.007 -0.005,0.0283 -0.008,0.0567 -0.0118,0.0853 -10e-4,-3e-5 -0.005,-10e-4 -0.006,-10e-4 -0.0239,-0.0267 -0.0451,-0.0551 -0.0689,-0.0818 z M 137.079,240.2862 c 0.12262,0.0227 0.24307,0.053 0.36765,0.0684 -0.0554,0.24425 -0.11753,0.48678 -0.16806,0.73225 -0.0604,-0.18372 -0.13598,-0.37352 -0.15722,-0.53606 -0.0115,-0.0886 -0.0292,-0.17626 -0.0425,-0.26461 z m -12.02629,4.25638 c 0.0223,0.031 0.0513,0.0613 0.0643,0.0934 0.024,0.059 -0.0534,0.24457 -0.0604,0.18118 -0.01,-0.0913 -0.007,-0.18275 -0.004,-0.27461 z m -28.354908,8.57268 c -0.01545,0.10067 -0.03594,0.20091 -0.04216,0.30253 -0.0065,0.10534 -0.01645,-0.16859 0.04216,-0.30253 z m 74.888688,-22.54864 c 0.0407,-0.008 0.0802,-0.0168 0.11897,-0.0262 -0.0258,0.0245 -0.051,0.0471 -0.0819,0.0685 -0.0118,-0.0137 -0.0241,-0.0274 -0.037,-0.0423 z m -31.26762,9.42395 c -0.0117,0.0146 -0.0388,0.0245 -0.0873,0.0274 0.0284,-0.01 0.0592,-0.0176 0.0873,-0.0274 z m -6.97695,2.5217 c 0.0312,1.5e-4 0.0632,-0.006 0.0937,-0.002 0.0547,0.007 0.0688,0.20406 0.0327,0.16232 -0.0446,-0.0516 -0.0843,-0.10653 -0.12646,-0.15997 z m 20.584,-5.68922 c 0.0268,-0.005 0.0541,-0.007 0.0807,-0.0119 9.6e-4,0.0649 0.002,0.13148 0.003,0.21067 -0.0277,-0.0655 -0.0562,-0.13256 -0.0836,-0.19878 z" />
    <text
       xml:space="preserve"
       transform="scale(0.26458333)"
       id="text10142"
       style="font-style:normal;font-weight:normal;font-size:40px;line-height:1.25;font-family:sans-serif;white-space:pre;shape-inside:url(#rect10144);fill:#000000;fill-opacity:1;stroke:none" />
    <g
       aria-label="DONE"
       transform="matrix(0.62394038,0,0,0.84187942,-20.628119,-192.38351)"
       id="text24518"
       style="font-size:74.6667px;line-height:0;white-space:pre;shape-inside:url(#rect24520);fill:#008000;stroke-width:0.365061" />
    <g
       aria-label="VOID"
       transform="matrix(0.62394038,0,0,0.84187942,-22.21562,-86.550113)"
       id="text24947"
       style="font-size:74.6667px;line-height:0;white-space:pre;shape-inside:url(#rect24953);fill:#008000;stroke-width:0.365061" />
  </g>
</svg>
