<?xml version="1.0" encoding="UTF-8" standalone="no"?>
<svg
   height="22.694128"
   viewBox="0 -960 910.91524 907.76512"
   width="22.772881"
   fill="#e8eaed"
   version="1.1"
   id="svg4"
   sodipodi:docname="idea.svg"
   inkscape:version="1.1.2 (0a00cf5339, 2022-02-04)"
   xmlns:inkscape="http://www.inkscape.org/namespaces/inkscape"
   xmlns:sodipodi="http://sodipodi.sourceforge.net/DTD/sodipodi-0.dtd"
   xmlns="http://www.w3.org/2000/svg"
   xmlns:svg="http://www.w3.org/2000/svg">
  <defs
     id="defs8">
    <filter
       inkscape:collect="always"
       style="color-interpolation-filters:sRGB"
       id="filter5506"
       x="-0.67474476"
       y="-1.3278213"
       width="2.3494895"
       height="3.6556427">
      <feGaussianBlur
         inkscape:collect="always"
         stdDeviation="215.38633"
         id="feGaussianBlur5508" />
    </filter>
    <filter
       inkscape:collect="always"
       style="color-interpolation-filters:sRGB"
       id="filter5510"
       x="-0.67474476"
       y="-1.3278213"
       width="2.3494895"
       height="3.6556426">
      <feGaussianBlur
         inkscape:collect="always"
         stdDeviation="215.38633"
         id="feGaussianBlur5512" />
    </filter>
  </defs>
  <sodipodi:namedview
     id="namedview6"
     pagecolor="#3b3b3b"
     bordercolor="#666666"
     borderopacity="1.0"
     inkscape:pageshadow="2"
     inkscape:pageopacity="0"
     inkscape:pagecheckerboard="true"
     showgrid="false"
     inkscape:zoom="22.627417"
     inkscape:cx="10.208854"
     inkscape:cy="8.396893"
     inkscape:window-width="969"
     inkscape:window-height="1011"
     inkscape:window-x="324"
     inkscape:window-y="19"
     inkscape:window-maximized="0"
     inkscape:current-layer="svg4"
     inkscape:snap-grids="true"
     inkscape:snap-page="true" />
  <path
     style="display:none;fill:#f0f8ff;fill-opacity:1;stroke:none;stroke-width:40px;stroke-linecap:butt;stroke-linejoin:miter;stroke-opacity:1;filter:url(#filter5510)"
     d="M 826.27764,-571.45385 60.169862,-572.2125 444.07775,-182.90769 714.88104,-458.20757 Z"
     id="path5502"
     inkscape:label="green"
     sodipodi:nodetypes="ccccc"
     sodipodi:insensitive="true" />
  <path
     style="display:none;fill:#f0f8ff;fill-opacity:1;stroke:none;stroke-width:40px;stroke-linecap:butt;stroke-linejoin:miter;stroke-opacity:1;filter:url(#filter5506)"
     d="M 826.27764,-571.45385 60.169862,-570.69521 444.07775,-960 714.88104,-684.70016 Z"
     id="path5504"
     inkscape:label="red"
     sodipodi:nodetypes="ccccc"
     sodipodi:insensitive="true" />
  <rect
     style="display:none;fill:#be0b0b;fill-opacity:1;stroke:#be0b0b;stroke-width:136.792;stroke-miterlimit:10;stroke-opacity:1"
     id="rect1273"
     width="504.66226"
     height="504.66226"
     x="-287.03156"
     y="-933.80591"
     transform="rotate(45)" />
  <path
     id="path3815"
     style="display:inline;fill:#f0f8ff;fill-opacity:1;stroke:none;stroke-width:1px;stroke-linecap:butt;stroke-linejoin:miter;stroke-opacity:1"
     inkscape:label="green"
     d="M 11.101562 0 L 1.5410156 9.6953125 L 1.5039062 9.6953125 L 1.5214844 9.7148438 L 1.5039062 9.7324219 L 1.5410156 9.7324219 L 11.101562 19.427734 L 17.871094 12.544922 L 20.65625 9.7128906 L 17.871094 6.8828125 L 11.101562 0 z "
     transform="matrix(40,0,0,40,0,-960)" />
  <g
     id="g31079"
     transform="matrix(1,0,0,-1,6.86919,-769.02686)"
     style="display:inline">
    <path
       style="display:none;fill:#666666;fill-opacity:1;stroke:none;stroke-width:40px;stroke-linecap:butt;stroke-linejoin:miter;stroke-opacity:1"
       d="M 799.2327,138.19434 430.15687,115.84808 105.34731,144.06692 452.63224,-217.58568 Z"
       id="path31073"
       inkscape:label="red"
       sodipodi:nodetypes="ccccc" />
    <path
       style="display:none;opacity:0.203557;fill:#000b0b;fill-opacity:1;stroke:none;stroke-width:0;stroke-linecap:butt;stroke-linejoin:miter;stroke-miterlimit:4;stroke-dasharray:none;stroke-opacity:1"
       d="m 343.52381,120.34081 -238.1765,23.72611 347.28493,-361.6526 z"
       id="path31075"
       sodipodi:nodetypes="cccc" />
  </g>
  <path
     id="path9296"
     style="display:inline;opacity:0.650294;fill:#b3b3b3;fill-opacity:1;stroke:none;stroke-width:40px;stroke-linecap:butt;stroke-linejoin:miter;stroke-opacity:1"
     inkscape:label="filament2"
     d="m 347.8431,-532.60831 0.20435,1.40625 h -0.20435 l 42.19743,390.62499 42.9126,-2.96876 -47.71473,-346.71873 58.34072,-1.40625 58.23861,1.40625 -47.71479,346.71873 43.01482,2.96876 42.19739,-390.62499 h -0.20434 l 0.20434,-1.40625 -95.73603,0.70312 z" />
  <path
     id="path3636"
     style="display:inline;opacity:0.203557;fill:#999999;fill-opacity:1;stroke:none;stroke-width:0;stroke-linecap:butt;stroke-linejoin:miter;stroke-miterlimit:4;stroke-dasharray:none;stroke-opacity:1"
     d="M 11.101562 0 L 9.2695312 1.9023438 L 1.5410156 9.6953125 L 1.5039062 9.6953125 L 1.5214844 9.7148438 L 1.5039062 9.7324219 L 1.5410156 9.7324219 L 9.2695312 17.525391 L 11.101562 19.427734 L 7.3476562 9.78125 L 11.101562 0 z "
     transform="matrix(40,0,0,40,0,-960)" />
  <rect
     style="display:inline;opacity:1;fill:#666666;fill-opacity:1;stroke-width:0;stroke-linecap:round;stroke-miterlimit:10"
     id="rect905"
     width="257.26355"
     height="243.60498"
     x="316.68008"
     y="-295.83984" />
  <path
     style="display:inline;opacity:0.203557;fill:#000b0b;fill-opacity:1;stroke:none;stroke-width:0;stroke-linecap:butt;stroke-linejoin:miter;stroke-miterlimit:4;stroke-dasharray:none;stroke-opacity:1"
     d="m 382.38878,-296.00879 1.56389,244.114811 -67.27257,-0.340892 c 0,-243.604999 0,0 0,-243.604999 z"
     id="path1281-3"
     sodipodi:nodetypes="ccccc" />
</svg>
