<?xml version="1.0" encoding="UTF-8" standalone="no"?>
<svg
   enable-background="new 0 0 24 24"
   height="18.5"
   id="Layer_1"
   version="1.1"
   viewBox="0 0 23.014231 18.5"
   width="23.014231"
   xml:space="preserve"
   sodipodi:docname="twitter.svg"
   inkscape:version="1.1.2 (0a00cf5339, 2022-02-04)"
   xmlns:inkscape="http://www.inkscape.org/namespaces/inkscape"
   xmlns:sodipodi="http://sodipodi.sourceforge.net/DTD/sodipodi-0.dtd"
   xmlns="http://www.w3.org/2000/svg"
   xmlns:svg="http://www.w3.org/2000/svg"><defs
     id="defs7" /><sodipodi:namedview
     id="namedview5"
     pagecolor="#ffffff"
     bordercolor="#666666"
     borderopacity="1.0"
     inkscape:pageshadow="2"
     inkscape:pageopacity="0.0"
     inkscape:pagecheckerboard="0"
     showgrid="false"
     inkscape:zoom="36.25"
     inkscape:cx="11.531034"
     inkscape:cy="11.393103"
     inkscape:window-width="1920"
     inkscape:window-height="1056"
     inkscape:window-x="0"
     inkscape:window-y="0"
     inkscape:window-maximized="1"
     inkscape:current-layer="Layer_1" /><path
     d="m 22.93923,2.2 c -0.1,-0.2 -0.4,-0.2 -0.6,-0.1 -0.2,0.1 -0.5,0.2 -0.7,0.3 0.3,-0.4 0.6,-0.9 0.8,-1.5 0.1,-0.2 0,-0.4 -0.2,-0.5 -0.2,-0.1 -0.4,-0.1 -0.5,0 -0.8,0.5 -1.6,0.8 -2.5,1 -0.9,-0.9 -2.2,-1.4 -3.5,-1.4 -2.8,0 -5,2.2 -5,4.9 0,0.2 0,0.3 0,0.5 C 7.5392305,5 4.5392305,3.4 2.4392305,0.9 c -0.1,-0.1 -0.3,-0.2 -0.4,-0.2 -0.2,0 -0.3,0.1 -0.4,0.2 -0.4,0.8 -0.70000002,1.7 -0.70000002,2.5 0,1 0.30000002,2 0.90000002,2.9 0,0 -0.1,-0.1 -0.2,-0.1 -0.1,-0.1 -0.3,0 -0.5,0 -0.1,0.1 -0.20000002,0.3 -0.20000002,0.4 0,1.6 0.80000002,3.1 2.00000002,4 -0.1,0 -0.2,0.1 -0.3,0.2 -0.1,0.1 -0.2,0.3 -0.1,0.4 0.5,1.6 1.8,2.8 3.4,3.2 -1.6,0.9 -3.5,1.3 -5.40000002,1.1 -0.2,0 -0.4,0.1 -0.5,0.3 -0.1,0.2 0,0.4 0.2,0.6 2.20000002,1.4 4.60000002,2.1 7.20000002,2.1 8.3999995,0 13.2999995,-6.7 13.2999995,-13.1 0,-0.1 0,-0.2 0,-0.3 0.8,-0.6 1.6,-1.4 2.2,-2.3 0.1,-0.2 0.1,-0.5 0,-0.6 z"
     id="path2"
     style="fill:#f0f8ff;fill-opacity:1" /></svg>
